<?xml version="1.0" encoding="utf-8" ?><svg xmlns="http://www.w3.org/2000/svg" xmlns:xlink="http://www.w3.org/1999/xlink" width="1280" height="1280" viewBox="0 0 1280 1280"><path d="M903.447 937.031C917.671 926.662 947.83 876.202 956.364 858.539C963.388 844.001 969.016 828.28 974.772 813.18C982.995 791.608 987.571 767.565 990.376 744.726C991.059 739.164 992.081 733.628 992.533 728.04C993.426 717.003 993.115 705.746 993.102 694.681C993.095 688.208 993.35 681.575 992.906 675.119C992.558 670.058 991.314 665.082 990.703 660.047C984.08 605.532 962.948 551.211 929.611 507.366C920.34 495.172 909.708 483.985 898.893 473.168C888.578 462.851 878.185 452.594 866.565 443.719C856.244 435.698 845.424 428.339 834.171 421.687C825.205 416.524 816.09 411.623 806.839 406.99C801.394 404.324 795.473 402.075 790.305 398.947C788.846 398.064 787.68 397.423 786.955 395.815C786.861 394.191 787.266 392.165 788.165 390.766C789.12 389.28 790.565 388.432 792.262 388.061C795.014 387.459 797.925 387.942 800.573 388.779C805.958 390.481 811.262 393.472 816.334 395.947C832.983 404.072 849.636 412.856 865.134 423.036C936.482 469.813 987.278 542.066 1007.15 625.035C1009.11 633.044 1012.67 646.578 1013.36 654.225C1014.01 661.33 1012.73 669.159 1014.34 676.126C1014.43 676.537 1014.54 676.946 1014.64 677.356C1017.42 687.794 1016.26 705.818 1015.45 716.861C1015.42 718.252 1015.17 719.294 1014.78 720.604C1012.33 728.663 1015.31 735.078 1014.35 742.821C1013.84 746.909 1012.06 750.689 1011.14 754.681C1009.35 762.439 1008 770.571 1006.6 778.426C1006.04 781.584 1006.12 788.302 1004.29 790.609L1003.05 791.187C998.271 809.083 992.307 826.196 985.131 843.263C981.063 852.939 975.614 862.936 972.533 872.867C972.221 873.872 972.393 873.489 971.697 874.352C967.125 882.468 962.623 892.236 956.493 899.255C955.941 900.095 955.416 900.828 954.756 901.584C951.495 905.322 948.792 910.352 946.338 914.609C946.264 914.737 946.14 914.83 946.041 914.94C942.934 921.311 938.83 926.679 934.015 931.85C932.816 933.706 928.226 936.63 928.485 938.588C928.707 940.272 939.068 954.749 940.943 957.918C948.43 970.574 951.381 982.562 954.03 996.887C954.885 1001.51 956.022 1006.38 955.73 1011.11C955.424 1016.07 953.169 1021.28 952.179 1026.19C950.647 1033.79 948.93 1041.66 944.759 1048.31C938.841 1057.75 925.962 1062.37 915.746 1065.88C895.563 1072.82 874.482 1077.33 853.77 1082.37L770.56 1103.13L425.647 1190.62C424.793 1190.84 423.932 1190.94 423.06 1191.06L422.454 1190.35C422.908 1185.72 426.997 1181.34 429.054 1177.25C431.434 1172.52 433.79 1167.57 435.626 1162.6C443.468 1141.38 444.54 1113.33 438.49 1091.61C436.237 1083.53 432.55 1075.71 429.012 1068.11C425.123 1059.76 420.602 1050.96 414.742 1043.81C410.322 1038.41 405.084 1033.74 400.983 1028.09C415.227 1031.34 423.835 1042.95 431.314 1054.79C434.695 1060.15 440.838 1075.35 445.141 1078.4C446.666 1078.06 447.321 1077.79 448.137 1076.38C454.701 1065.02 436.208 1015.87 458.5 1007.53C467.649 1004.1 472.825 1010.98 480.125 1010.68C489.989 1010.28 484.612 995.629 509.078 1001.74C514.875 1003.18 520.473 1004.98 525.824 1007.66C529.957 1009.74 533.782 1012.65 538.218 1013.96C549.632 1006.62 571.488 987.558 585.699 990.419C587.612 990.804 589.519 991.413 591.39 991.966C595.924 994.267 598.726 998.115 602.921 1000.79C609.149 999.668 616.388 987.517 623.254 983.996C630.628 980.214 637.26 985.43 646.768 979.591C655.068 974.883 690.115 960.98 699.047 962.499C704.668 963.454 707.461 977.054 711.066 981.641C711.208 981.822 711.357 981.998 711.502 982.177C723.443 975.785 737.095 963.159 750.587 960.918C756.402 959.953 761.602 963.84 767.335 962.719C773.529 961.507 779.516 956.613 785.928 956.906C791.813 957.175 796.317 962.363 799.931 966.444C805.126 960.758 810.555 955.46 817.96 952.798C826.416 949.759 832.479 951.632 840.146 955.371C844.82 952.091 848.45 947.421 853.235 944.096C861.457 938.384 881.652 934.957 892.364 932.117C896.362 933.267 899.795 935.071 903.447 937.031ZM722.404 1055.22C725.206 1056.3 727.658 1057.33 728.979 1060.22C730.049 1062.56 730.167 1065.38 730.275 1067.91C731.357 1068.59 731.015 1068.56 732.042 1068.7C743.357 1070.19 745.318 1080.18 754.595 1084.2C763.878 1088.22 774.62 1071.16 785.103 1067.01L785.958 1066.68C790.227 1068.24 793.123 1071.16 797.101 1072.98C803.645 1075.98 816.113 1064.28 821.527 1060.81C824.031 1059.2 826.587 1058.14 829.356 1057.11C834.251 1059.46 838.316 1062.74 842.762 1065.81C849.806 1063.82 858.433 1054.74 862.297 1054.66C865.417 1054.59 868.343 1057.28 871.241 1056.98C876.785 1056.4 885.419 1047.56 891.164 1044.8C895.566 1042.69 900.388 1042.41 905.126 1041.56C916.156 1039.57 927.762 1035.4 934.766 1026.35C934.988 1023.6 935.241 1020.84 935.383 1018.09C935.717 1011.61 933.029 1001.96 928.447 997.176C923.608 992.127 919.564 994.653 913.743 993.857C912.097 993.632 911.654 993.364 911 991.856C909.397 988.161 909.985 981.644 909.731 977.55C909.159 968.312 906.602 952.75 901.123 945.235C899.6 943.147 897.684 941.646 895.075 941.276C889.68 940.51 884.66 944.173 879.676 945.658C873.767 947.418 866.98 946.776 861.321 949.207C857.977 950.643 856.373 953.134 853.522 955.082C852.598 955.713 851.152 956.385 850.566 957.377C847.904 961.888 853.586 969.72 854.607 974.179C855.349 977.422 854.095 980.805 854.485 984.077C855.211 990.16 858.253 996.287 859.467 1002.37C860.212 1006.1 860.487 1009.4 858.285 1012.64C855.968 1014.09 853.13 1014.05 850.464 1014.32C849.289 1007.94 847.492 1001.67 846.308 995.279C843.537 980.334 843.932 972.251 832.584 960.713C828.711 960.484 824.892 960.606 821.019 960.743C817.314 963.192 814.554 966.572 811.742 969.945C811.103 973.096 811.099 976.717 811.468 979.908C812.033 984.796 813.951 989.714 815.164 994.494C817.295 1002.9 819.055 1011.11 820.466 1019.66C819.736 1020.62 818.985 1021.56 818.101 1022.39C816.71 1023.69 815.166 1024.4 813.237 1024.18C804.87 1023.23 805.125 1003.63 803.89 997.731C802.192 989.619 799.547 978.86 794.193 972.347C791.785 969.418 788.655 967.125 784.776 966.823C777.244 966.239 770.083 972.391 764.671 976.93C761.382 973.839 757.412 970.279 752.624 970.185C743.05 969.996 725.502 983.333 718.9 990.02C717.577 991.36 715.832 993.001 715.414 994.922C713.843 1002.13 723.844 1019.14 726.64 1026.17C728.748 1031.47 730.342 1036.99 731.931 1042.47C732.723 1045.19 733.952 1048.43 733.868 1051.27C733.825 1052.74 733.683 1052.92 732.675 1053.87C728.414 1052.61 708.529 1037.62 706.58 1034.04C705.328 1031.73 706.438 1027.93 706.81 1025.48C709.342 1008.83 702.35 987.485 692.475 974.08C691.347 973.512 690.861 973.105 689.562 973.096C686.899 973.076 680.014 975.276 678.165 977.112C674.821 980.596 671.018 984.879 666.025 985.67L665.689 985.719C649.723 989.19 653.641 992.687 643.51 1001.7C640.182 998.619 637.018 995.493 633.968 992.136L630.828 991.906C630.654 992.062 630.482 992.219 630.307 992.372C627.253 995.047 623.604 996.657 620.664 999.447C616.828 1003.09 614.042 1007.62 610.263 1011.25C609.838 1014.35 609.663 1019.51 606.856 1021.46C605.923 1022.1 604.498 1022.36 603.394 1022.58C601.052 1019.3 598.802 1016.24 597.31 1012.47C595.065 1007.65 591.104 1003.48 586.761 1000.5C578.696 998.816 571.093 1002.17 564.469 1006.64C563.089 1007.58 561.973 1008.73 560.538 1009.59C557.231 1013.37 544.49 1023.8 539.91 1024.91C538.817 1024.99 537.712 1025.02 536.666 1024.62C530.616 1022.34 522.598 1015.79 514.492 1012.6C509.7 1010.71 503.099 1008.06 498.113 1010.5C493.366 1012.83 491.822 1020.32 490.233 1024.88C484.866 1022.58 479.419 1020.01 473.808 1018.37C470.033 1017.26 466.608 1016.13 462.963 1018.1C461.114 1020.33 459.14 1022.55 458.205 1025.34C456.322 1030.97 457.598 1052.84 457.455 1060.32C457.161 1067.39 456.811 1074.47 456.862 1081.55C456.954 1088.41 456.968 1095.26 456.904 1102.12C457.078 1109.27 455.87 1114.95 458.75 1121.91C461.862 1129.44 471.412 1135.76 478.729 1138.75C483.877 1140.84 493.751 1143.78 498.88 1141.06C501.246 1139.81 501.839 1137.5 502.37 1135.1C502.749 1133.4 503.147 1131.93 503.808 1130.31C507.185 1128.04 517.769 1134.01 522.262 1134.88C525.276 1135.46 528.732 1135.14 531.799 1135.06L534.395 1130.03C534.161 1127.78 533.394 1124.13 534.008 1122C534.491 1120.32 534.901 1119.99 536.224 1119.01C542.234 1117.95 551.383 1124.74 557.465 1126.51C565.796 1128.94 565.865 1123.13 571.83 1120.35C575.45 1118.66 579.664 1122.24 582.783 1123.7C584.783 1124.63 586.496 1125.02 588.711 1124.54C597.044 1122.74 611.2 1104.51 620 1101.27C624.746 1102.07 630.129 1110.55 634.258 1113.37C634.446 1113.5 634.636 1113.62 634.825 1113.75C646.747 1110.66 656.079 1106.03 661.946 1094.64C663.506 1091.6 664.279 1088.59 666.138 1085.64C666.275 1085.42 666.416 1085.21 666.555 1084.99C669.366 1085.45 672.954 1085.71 675.11 1087.72C674.987 1089.61 673.533 1089.63 673.373 1091.76C674.729 1094.39 676.58 1098.09 679.711 1098.93C688.362 1101.26 692.433 1083.03 696.64 1080.33C705.019 1079.14 706.944 1089.5 713.358 1092.71C715.18 1093.63 716.9 1093.58 718.784 1092.9C723.202 1091.3 728.705 1083.92 730.231 1079.71C731.635 1075.83 731.543 1072.2 729.886 1068.46C724.003 1074.37 725.972 1081.74 717.641 1083.97C700.025 1082.83 700.24 1065.16 692.907 1063.13L691.808 1064.09C690.743 1066.45 690.525 1067.51 691.053 1070.05C692.158 1073.27 692.223 1076.7 692.488 1080.07C690.509 1083.8 688.07 1087.24 683.755 1088.37C682.623 1088.67 681.887 1088.72 680.747 1088.59C679.618 1088.41 677.819 1088.3 677.192 1087.23C674.683 1082.92 674.721 1072.12 672.65 1066.37C668.801 1055.69 663.335 1045.31 658.28 1035.16C655.491 1029.55 651.825 1023.48 650.357 1017.36C649.78 1014.95 649.933 1012.36 650.403 1009.95C651.531 1004.17 655.537 994.096 660.412 990.78C663.024 991.366 664.527 992.482 665.959 994.777C669.059 999.748 668.598 1005.43 670.129 1010.85C671.362 1015.22 674.065 1018.79 674.079 1023.54C675.403 1026.08 677.248 1028.9 680.041 1029.98C680.943 1030.33 681.301 1029.87 682.097 1029.47C687.547 1020.57 675.886 998.221 678.044 988.044C678.553 985.644 679.706 983.758 681.9 982.577C684.122 981.381 686.99 981.659 689.314 982.259C691.464 982.947 692.718 983.761 693.793 985.817C700.842 999.297 699.269 1022.93 699.962 1037.93C704.507 1043.15 715.923 1052.86 722.404 1055.22ZM923.565 944.268C920.39 945.479 919.063 946.682 917.626 949.786C914.641 956.235 917.535 970.545 919.957 976.891C922.387 983.256 928.529 984.462 932.561 989.237C935.998 993.307 937.811 998.595 939.413 1003.61C940.712 1004.29 940.672 1004.24 942.103 1003.86C944.049 1001.87 944.202 999.949 944.138 997.257C943.944 989.109 932.437 951.251 926.665 945.576C925.897 944.82 924.558 944.548 923.565 944.268ZM686.88 1109.16C677.559 1108.61 674.862 1104.52 670.741 1103.89C669.489 1103.7 668.553 1104.2 667.667 1105C665.523 1106.95 664.926 1110.09 662.622 1112.08C659.855 1114.47 654.23 1115.83 652.626 1118.77C653.817 1120.23 655.046 1120.86 656.952 1121.03C658.497 1121.17 658.952 1121.18 660.272 1120.41C665.439 1119.27 669.854 1117.07 674.839 1115.65C683.295 1113.24 710.78 1110.23 716.031 1104.78C716.086 1103.41 716.326 1103.83 715.504 1102.9C712.327 1099.28 703.028 1095.7 698.33 1094.95C696.558 1100.76 691.602 1105.55 686.88 1109.16ZM931.703 1042.06C923.777 1042.95 918.513 1047.18 911.42 1050.02C905.22 1052.51 891.679 1052.48 887.639 1058.35C886.863 1059.47 886.637 1060.67 887.119 1061.95C887.274 1062.36 887.675 1062.89 887.935 1063.25C897.86 1061.11 925.396 1055.44 930.836 1046.6C931.66 1045.26 932.091 1043.59 931.703 1042.06ZM456.519 1135.42C449.23 1143.91 452.685 1149.16 448.483 1158.77C448.217 1162.98 446.988 1167.23 447.138 1171.41C448.869 1172.21 450.466 1172.13 452.285 1171.73C461.384 1169.73 470.207 1166.37 479.271 1164.19C485.628 1162.66 492.217 1162.09 498.595 1160.58C517.516 1156.11 536.281 1150.77 555.095 1145.84C563.031 1143.76 574.281 1142.96 580.98 1140.61C582.716 1139.99 584.444 1138.92 585.337 1137.27C585.455 1137.05 585.528 1136.81 585.624 1136.58C584.835 1134.83 583.846 1134.31 582.054 1133.67C579.74 1132.84 577.208 1133.13 574.8 1133.27C571.967 1134.04 568.747 1135.17 565.806 1135.23C560.278 1135.35 553.479 1133.17 548.169 1134.21C544.658 1134.89 540.537 1144.91 535.567 1146.97C528.995 1149.71 521.063 1141.13 514.284 1141.49C510.856 1141.68 508.265 1147.39 505.428 1149.35C495.755 1156.03 478.825 1149.38 469.738 1144.22C465.103 1141.59 461.07 1138.07 456.519 1135.42ZM820.932 1081.52C825.102 1079 832.168 1076.43 834.265 1071.96C834.086 1070.61 834.017 1070.04 832.679 1069.3C830.918 1068.32 828.379 1068.26 826.418 1068.1C825.335 1069.26 824.771 1070 824.184 1071.47C822.943 1074.6 820.018 1076.21 817.345 1078.01L817.474 1077.55L816.366 1078.6C816.765 1080.01 816.371 1079.64 817.546 1080.31C818.74 1080.98 819.62 1081.21 820.932 1081.52ZM783.845 1077.27L783.487 1077.76C781.154 1080.86 776.11 1084.48 776.081 1088.5C777.393 1089.44 778.303 1089.72 779.952 1089.54C781.554 1089.37 783.291 1088.81 784.831 1088.32C787.42 1087.78 791.048 1087.54 792.57 1085.11C793.173 1084.15 792.922 1083.43 792.881 1082.34C791.094 1079.39 788.692 1078.3 785.367 1077.51C784.593 1077.33 784.525 1077.34 783.845 1077.27ZM741.005 1085.98C740.826 1086.34 740.652 1086.71 740.466 1087.06C738.508 1090.82 732.349 1095.08 732.686 1099.46C733.804 1100.58 734.459 1101.02 736.1 1101.02C737.905 1101.03 739.944 1100.54 741.73 1100.26C744.486 1099.14 748.597 1098.12 749.783 1095.1C750.293 1093.8 750.266 1092.24 749.516 1091.04C748.01 1088.62 743.669 1086.53 741.005 1085.98ZM617.458 1114.9C612.485 1117.84 602.347 1124.7 600.497 1130.5C600.18 1131.5 600.213 1131.65 600.14 1132.58C600.964 1133.84 601.179 1134.07 602.765 1134.39C605.795 1135.01 610.402 1133.02 613.283 1132.06C618.052 1130.31 629.68 1128 632.678 1124.38C632.753 1123.37 633.008 1123.04 632.332 1122.18C630.447 1119.8 621.61 1114.86 618.57 1114.82C618.199 1114.82 617.829 1114.88 617.458 1114.9Z"/><path fill="#C70810" d="M464.971 1028.25C465.83 1027.39 466.698 1026.49 467.654 1025.74C475.95 1019.21 493.002 1040.48 499.269 1041.02C502.873 1037.95 498.706 1027.9 501.122 1022.83C501.969 1021.05 503.271 1020.19 505.142 1019.71C512.16 1017.9 525.245 1026.43 530.827 1030.17C532.871 1031.4 534.314 1032.61 535.598 1034.65C539.247 1040.43 547.729 1062.56 549.528 1069.61C550.109 1071.89 550.439 1074.27 550.794 1076.6C552.173 1079.7 552.582 1082.98 553.682 1086.18C556.977 1095.75 560.24 1105.5 563.849 1114.95C562.734 1116.54 562.151 1117.57 560.05 1117.85C553.694 1118.67 545.666 1113.09 540.818 1109.48C537.444 1102.18 536.204 1093.49 532.184 1086.66C530.596 1086.03 529.817 1085.43 528.144 1086.24C526.382 1087.1 525.646 1089.36 525.303 1091.14C523.149 1102.31 530.272 1115.91 527.881 1124.27C526.42 1126.08 522.961 1126.72 520.777 1127.43L516.841 1126.33C497.891 1121.15 503.879 1102.46 494.748 1094.38L493.687 1094.55C493.23 1095.11 492.768 1095.63 492.46 1096.31C491.146 1099.21 490.718 1115.63 492.025 1118.72C493.817 1121.79 498.423 1127.55 497.63 1131C497.366 1132.15 496.443 1133.06 495.387 1133.56C492.97 1134.7 488.654 1134.94 486.176 1133.88C485.245 1133.49 484.467 1132.76 483.711 1132.11C480.13 1128.3 473.703 1127.23 469.777 1123.35C466.837 1120.44 465.87 1116.97 465.299 1112.96C463.995 1103.81 464.931 1093.55 464.936 1084.26L464.971 1028.25Z"/><path fill="#E0D6D5" d="M527.881 1124.27C525.096 1119.19 522.417 1099.04 522.485 1092.72C522.522 1089.24 522.822 1086.04 525.412 1083.52C526.899 1082.95 528.19 1082.22 529.792 1082.73C531.136 1084.1 531.734 1084.72 532.184 1086.66C530.596 1086.03 529.817 1085.43 528.144 1086.24C526.382 1087.1 525.646 1089.36 525.303 1091.14C523.149 1102.31 530.272 1115.91 527.881 1124.27Z"/><path fill="#BCB7B7" d="M530.827 1030.17C532.871 1031.4 534.314 1032.61 535.598 1034.65C539.247 1040.43 547.729 1062.56 549.528 1069.61C550.109 1071.89 550.439 1074.27 550.794 1076.6C547.253 1073.19 540.683 1049.61 537.962 1043.32C535.986 1038.76 532.677 1034.81 530.827 1030.17Z"/><path fill="#BCB7B7" d="M492.025 1118.72C493.817 1121.79 498.423 1127.55 497.63 1131C497.366 1132.15 496.443 1133.06 495.387 1133.56C492.97 1134.7 488.654 1134.94 486.176 1133.88C485.245 1133.49 484.467 1132.76 483.711 1132.11C485.597 1132.29 487.718 1132.64 489.606 1132.53C491.292 1132.44 491.97 1131.94 493.139 1130.8C494.03 1127.43 492.258 1122.8 492.05 1119.25C492.04 1119.08 492.034 1118.9 492.025 1118.72Z"/><path fill="#C70810" d="M577.919 1009.78C580.887 1009.82 583.826 1009.66 586.667 1010.62C590.776 1014.39 595.602 1021.33 597.263 1026.65C595.374 1031.55 585.845 1033.42 581.528 1036.3C579.503 1037.65 578.333 1038.86 577.829 1041.33C578.048 1042.24 578.001 1042.9 578.745 1043.54C583.041 1047.27 589.868 1042.48 594.652 1042.14C596.67 1042 598.31 1042.58 599.834 1043.93C602.246 1046.07 604.37 1052.62 604.02 1055.82C603.498 1060.59 596.908 1060.2 594.122 1062.88C593.985 1063.01 593.878 1063.17 593.756 1063.32C590.341 1066.6 583.942 1070.5 583.783 1075.71C583.763 1076.37 583.814 1076.79 583.862 1077.48C592.347 1081.69 597.708 1071.35 605.647 1071.87C607.583 1071.99 608.28 1073.02 609.568 1074.25C613.799 1080.21 616.619 1088.15 618.841 1095.11C614.431 1100.12 598.04 1112.85 591.792 1113.48C591.308 1113.61 590.821 1113.74 590.342 1113.89C586.392 1115.16 583.192 1115.5 579.064 1114.59C575.919 1113.92 573.18 1112.01 571.478 1109.28C566.66 1101.39 565.725 1090.7 563.807 1081.78C561.489 1070.99 558.658 1058.45 553.953 1048.52C552.048 1044.5 545.724 1034.35 547.416 1029.86C549.737 1023.71 571.472 1013.14 577.919 1009.78Z"/><path fill="#E0D6D5" d="M616.741 1093.35C614.642 1087.41 609.718 1080.57 609.568 1074.25C613.799 1080.21 616.619 1088.15 618.841 1095.11C614.431 1100.12 598.04 1112.85 591.792 1113.48C599.804 1106.49 609.237 1100.76 616.741 1093.35Z"/><path fill="#BCB7B7" d="M583.862 1077.48L583.491 1077.68C582.585 1076.31 582.538 1075.37 582.397 1073.75C582.189 1071.36 582.871 1069.68 584.403 1067.9C586.504 1065.46 590.571 1063.47 593.756 1063.32C590.341 1066.6 583.942 1070.5 583.783 1075.71C583.763 1076.37 583.814 1076.79 583.862 1077.48Z"/><path fill="#C70810" d="M630.669 999.852C633.94 1000.99 636.63 1002.63 639.555 1004.44C641.997 1008.59 646.695 1017.62 646.652 1022.3C646.606 1027.29 634.72 1030.95 631.431 1034.59C630.035 1036.13 629.951 1037.3 630.142 1039.29C631.314 1041.25 632.944 1041.98 634.899 1043.06C639.649 1041.76 645.231 1039.85 650.026 1041.79C653.967 1043.38 655.414 1047.55 657.04 1051.13C662.167 1059.58 665.119 1070.29 665.049 1080.14C658.868 1086.78 648.735 1105.93 639.411 1106.38C638.642 1106.41 637.876 1106.4 637.107 1106.38C633.345 1104.8 629.458 1100.34 627.275 1096.94C625.006 1093.41 622.405 1088.24 623.474 1083.9C625.024 1077.61 634.608 1076.88 639.375 1073.94C639.876 1073.12 640.419 1072.73 640.211 1071.72C639.707 1069.28 637.303 1067.93 635.393 1066.63C631.973 1066.71 628.159 1067.17 624.777 1066.72C622.333 1066.4 620.69 1065.08 619.31 1063.1C613.109 1054.23 607.944 1034.63 610.501 1023.72C612.211 1016.43 624.088 1003.59 630.669 999.852Z"/><path fill="#E0D6D5" d="M637.107 1106.38C641.938 1103.88 645.379 1100.79 648.911 1096.71C656.875 1087.49 665.682 1075.41 660.685 1062.72C659.476 1059.65 657.098 1055.42 657.025 1052.15C657.018 1051.81 657.035 1051.47 657.04 1051.13C662.167 1059.58 665.119 1070.29 665.049 1080.14C658.868 1086.78 648.735 1105.93 639.411 1106.38C638.642 1106.41 637.876 1106.4 637.107 1106.38Z"/><path fill="#C70810" d="M756.797 1075.18C755.966 1074.55 756.367 1074.78 755.448 1074.35C754.496 1073.91 753.53 1073.47 752.629 1072.93C748.659 1070.52 744.41 1066.89 742.614 1062.51C739.206 1054.19 741.556 1044.31 739.146 1035.71C737.625 1030.27 735.523 1024.58 733.074 1019.49C730.196 1013.5 725.95 1007.43 724.577 1000.89C724.155 998.881 724.026 997.051 725.231 995.28C728.552 990.396 747.136 980.811 752.908 979.954C754.679 979.691 756.286 979.647 757.75 980.823C761.991 984.233 763.652 993.796 764.062 998.995C758.197 1001.19 752.068 1003.27 748.815 1009.09C748.927 1011.03 748.929 1011.49 749.963 1013.11C754.039 1014.92 759.957 1010.9 764.105 1010.05C764.849 1009.9 766.101 1009.81 766.716 1010.31C769.338 1012.46 770.437 1022.7 771.198 1026.14C766.885 1028.07 761.089 1030.4 758.014 1034.05C756.276 1036.11 756.096 1037.92 756.324 1040.52C757.053 1041.8 757.795 1042.5 759.091 1043.17C763.729 1045.59 768.355 1038.65 772.705 1037.98C774.298 1037.73 775.234 1038.39 776.31 1039.46C779.131 1042.29 781.808 1053.8 781.847 1057.68C780.598 1063.8 772.281 1070.38 767.169 1073.78C765.006 1075.23 762.146 1077.08 759.405 1076.38C758.53 1076.16 757.598 1075.6 756.797 1075.18Z"/><path fill="#E0D6D5" d="M756.797 1075.18C767.834 1074.32 773.117 1061 781.847 1057.68C780.598 1063.8 772.281 1070.38 767.169 1073.78C765.006 1075.23 762.146 1077.08 759.405 1076.38C758.53 1076.16 757.598 1075.6 756.797 1075.18Z"/><path fill="#C70810" d="M798.978 1065.45C794.112 1063.1 790.515 1061.07 788.542 1055.77C783.717 1042.84 784.946 1028.51 782.239 1015.14C780.359 1005.86 776.607 996.568 775.564 987.16C775.259 984.407 775.098 980.537 776.537 978.03C777.344 976.622 778.407 975.596 780.036 975.227C783.109 974.532 785.929 976.41 788.537 977.769C792.545 985.543 797.36 1006.66 799.051 1015.72C800.133 1021.52 800.14 1027.14 802.731 1032.57C808.143 1034.68 813.136 1027.89 818.903 1029.47C822.878 1032.25 824.439 1039.4 825.229 1044.03C825.678 1046.66 826.185 1050.14 824.61 1052.5C821.824 1056.67 816.536 1057.83 812.001 1059.13C807.724 1061.37 803.381 1063.47 798.978 1065.45Z"/><path fill="#BCB7B7" d="M818.903 1029.47C822.878 1032.25 824.439 1039.4 825.229 1044.03C825.678 1046.66 826.185 1050.14 824.61 1052.5C821.824 1056.67 816.536 1057.83 812.001 1059.13C813.284 1055.9 821.433 1052.08 824.491 1049.71C823.344 1042.66 821.331 1036.18 818.903 1029.47Z"/><path fill="#C70810" d="M859.415 1047.03C854.941 1050.14 848.419 1054.56 842.764 1054.44C839.55 1054.37 836.732 1052.68 834.691 1050.27C826.835 1040.98 827.862 1009.12 825.264 995.816C823.972 989.202 818.181 982.736 818.925 975.778C819.181 973.38 820.063 970.656 822.098 969.208C823.298 968.354 824.479 968.473 825.85 968.844C832.135 970.545 833.116 977.904 834.771 983.019C836.957 989.773 839.695 995.113 840.503 1002.36C841.153 1008.18 841.094 1020.86 843.568 1025.47C846.922 1027.61 854.169 1021.41 858.2 1020.91C860.201 1020.66 861.225 1021.18 862.736 1022.42C867.603 1027.59 866.685 1034.75 871.722 1039.36L872.29 1040.51C868.123 1043.77 864.533 1045.63 859.415 1047.03Z"/><path fill="#E0D6D5" d="M862.736 1022.42C867.603 1027.59 866.685 1034.75 871.722 1039.36L872.29 1040.51C868.123 1043.77 864.533 1045.63 859.415 1047.03L859.206 1046.6C862.061 1044.74 864.757 1042.89 867.361 1040.68C866.247 1034.85 862.591 1028.23 862.736 1022.42Z"/><path fill="#C70810" d="M884.918 953.241C886.135 952.687 887.336 952.091 888.576 951.587C891.087 950.566 892.216 950.815 894.671 951.847C896.688 953.303 898.293 954.748 899.916 956.635C899.946 963.035 901.247 969.228 901.335 975.551C902.111 979.386 903.329 983.098 904.06 986.945C905.018 991.989 905.383 997.415 906.75 1002.34C907.158 1003.81 907.637 1004.91 908.78 1005.96C911.82 1005.84 913.682 1003.13 916.558 1002.37C918.175 1001.95 919.417 1002.1 920.831 1002.99C924.71 1005.44 925.749 1011.93 926.908 1015.99C926.484 1018.2 926.008 1020.56 925.026 1022.61C922.869 1027.11 913.372 1030.78 908.777 1032.33C905.033 1033.6 901.822 1034.28 898.168 1032.51C895.279 1028.92 894.098 1021.48 893.284 1016.99C891.711 1008.32 892.034 999.336 890.89 990.585C889.346 978.767 884.471 964.671 884.918 953.241Z"/><path fill="#BCB7B7" d="M894.671 951.847C896.688 953.303 898.293 954.748 899.916 956.635C899.946 963.035 901.247 969.228 901.335 975.551L901.139 975.726C899.752 974.145 895.606 955.317 894.671 951.847Z"/><path fill="#C70810" d="M859.728 961.517C861.528 959.704 863.691 957.733 865.924 956.477C868.728 954.899 870.867 954.834 873.877 955.791C878.212 959.167 878.823 962.59 879.465 967.936C880.377 975.534 879.49 983.145 881.391 990.645C882.532 1000.52 882.169 1011.65 884.802 1021.22C886.09 1025.89 889.792 1033.45 888.282 1038.13C886.818 1039.88 885.514 1040.1 883.451 1040.76C881.038 1041.53 877.51 1043.36 875.021 1042.52C873.881 1042.14 873.094 1041.35 872.29 1040.51L871.722 1039.36C872.14 1038.13 872.52 1036.95 872.505 1035.63C872.458 1031.46 870.852 1026.21 870.2 1021.97C868.238 1009.21 866.515 996.189 864.231 983.502C862.901 976.112 860.561 969.013 859.728 961.517Z"/><path fill="#E0D6D5" d="M873.877 955.791C878.212 959.167 878.823 962.59 879.465 967.936C880.377 975.534 879.49 983.145 881.391 990.645L881.179 997.675C879.967 994.586 879.806 990.902 879.18 987.622C877.139 976.916 874.754 966.726 873.877 955.791Z"/><path fill="#C70810" d="M674.079 1023.54C675.403 1026.08 677.248 1028.9 680.041 1029.98C680.943 1030.33 681.301 1029.87 682.097 1029.47C687.547 1020.57 675.886 998.221 678.044 988.044C678.553 985.644 679.706 983.758 681.9 982.577C684.122 981.381 686.99 981.659 689.314 982.259C691.464 982.947 692.718 983.761 693.793 985.817C700.842 999.297 699.269 1022.93 699.962 1037.93C704.507 1043.15 715.923 1052.86 722.404 1055.22C725.206 1056.3 727.658 1057.33 728.979 1060.22C730.049 1062.56 730.167 1065.38 730.275 1067.91L729.886 1068.46C724.003 1074.37 725.972 1081.74 717.641 1083.97C700.025 1082.83 700.24 1065.16 692.907 1063.13L691.808 1064.09C690.743 1066.45 690.525 1067.51 691.053 1070.05C692.158 1073.27 692.223 1076.7 692.488 1080.07C690.509 1083.8 688.07 1087.24 683.755 1088.37C682.623 1088.67 681.887 1088.72 680.747 1088.59C679.618 1088.41 677.819 1088.3 677.192 1087.23C674.683 1082.92 674.721 1072.12 672.65 1066.37C668.801 1055.69 663.335 1045.31 658.28 1035.16C655.491 1029.55 651.825 1023.48 650.357 1017.36C649.78 1014.95 649.933 1012.36 650.403 1009.95C651.531 1004.17 655.537 994.096 660.412 990.78C663.024 991.366 664.527 992.482 665.959 994.777C669.059 999.748 668.598 1005.43 670.129 1010.85C671.362 1015.22 674.065 1018.79 674.079 1023.54Z"/><path fill="#BCB7B7" d="M689.314 982.259C691.464 982.947 692.718 983.761 693.793 985.817C700.842 999.297 699.269 1022.93 699.962 1037.93C699.407 1037.54 698.925 1036.96 698.534 1036.42C695.509 1032.23 698.372 1016.66 697.913 1010.66C697.614 1006.75 696.515 1003.16 695.228 999.48C693.851 995.543 688.85 986.029 689.314 982.259Z"/><path fill="#E0D6D5" d="M722.404 1055.22C725.206 1056.3 727.658 1057.33 728.979 1060.22C730.049 1062.56 730.167 1065.38 730.275 1067.91L729.886 1068.46C724.003 1074.37 725.972 1081.74 717.641 1083.97C717.679 1083.88 717.71 1083.79 717.755 1083.71C721.653 1076.57 724.214 1069.27 726.738 1061.57C725.351 1059.42 723.85 1057.33 722.404 1055.22Z"/><path fill="#BCB7B7" d="M660.412 990.78C663.024 991.366 664.527 992.482 665.959 994.777C669.059 999.748 668.598 1005.43 670.129 1010.85C671.362 1015.22 674.065 1018.79 674.079 1023.54C673.253 1022.41 661.233 993.375 660.412 990.78Z"/><path fill="#BCB7B7" d="M691.053 1070.05C692.158 1073.27 692.223 1076.7 692.488 1080.07C690.509 1083.8 688.07 1087.24 683.755 1088.37C682.623 1088.67 681.887 1088.72 680.747 1088.59C690.567 1082.74 687.032 1078.94 690.674 1070.84C690.794 1070.58 690.927 1070.32 691.053 1070.05Z"/><path fill="#200103" d="M591.39 991.966C595.924 994.267 598.726 998.115 602.921 1000.79C609.149 999.668 616.388 987.517 623.254 983.996C630.628 980.214 637.26 985.43 646.768 979.591C649.088 980.392 650.989 980.561 652.378 982.681C652.394 982.975 652.406 983.269 652.427 983.563C652.51 984.758 652.593 985.718 653.165 986.775C655.572 985.036 659.3 981.908 662.535 982.489C664.489 982.84 664.816 984.187 665.689 985.719C649.723 989.19 653.641 992.687 643.51 1001.7C640.182 998.619 637.018 995.493 633.968 992.136L630.828 991.906C630.654 992.062 630.482 992.219 630.307 992.372C627.253 995.047 623.604 996.657 620.664 999.447C616.828 1003.09 614.042 1007.62 610.263 1011.25C609.838 1014.35 609.663 1019.51 606.856 1021.46C605.923 1022.1 604.498 1022.36 603.394 1022.58C601.052 1019.3 598.802 1016.24 597.31 1012.47C595.065 1007.65 591.104 1003.48 586.761 1000.5C586.611 998.634 586.874 996.694 587.008 994.827C588.379 992.977 589.298 992.83 591.39 991.966Z"/><path d="M597.31 1012.47C597.359 1012.4 597.416 1012.34 597.457 1012.26C598.109 1011.1 598.561 1009.68 599.697 1008.87C601.872 1007.32 604.355 1007.22 606.903 1007.39L607.676 1008.6C608.243 1007.68 608.47 1007.38 609.256 1006.72L609.875 1007.33L610.523 1007.31C610.716 1009.03 609.441 1009.99 610.263 1011.25C609.838 1014.35 609.663 1019.51 606.856 1021.46C605.923 1022.1 604.498 1022.36 603.394 1022.58C601.052 1019.3 598.802 1016.24 597.31 1012.47Z"/><path fill="#E0D6D5" d="M609.875 1007.33L610.523 1007.31C610.716 1009.03 609.441 1009.99 610.263 1011.25C609.838 1014.35 609.663 1019.51 606.856 1021.46C605.923 1022.1 604.498 1022.36 603.394 1022.58C604.224 1017.03 607.227 1012.18 609.875 1007.33Z"/><path fill="#E0D6D5" d="M653.165 986.775C655.572 985.036 659.3 981.908 662.535 982.489C664.489 982.84 664.816 984.187 665.689 985.719C649.723 989.19 653.641 992.687 643.51 1001.7C640.182 998.619 637.018 995.493 633.968 992.136C638.313 992.592 641.27 996.02 644.411 998.777C647.675 995.086 650.071 990.647 653.165 986.775Z"/><path fill="#BCB7B7" d="M610.523 1007.31C611.926 1005.01 613.549 1003.04 615.366 1001.06C619.355 996.714 624.696 992.161 630.828 991.906C630.654 992.062 630.482 992.219 630.307 992.372C627.253 995.047 623.604 996.657 620.664 999.447C616.828 1003.09 614.042 1007.62 610.263 1011.25C609.441 1009.99 610.716 1009.03 610.523 1007.31Z"/><path fill="#90676F" d="M457.455 1060.32C457.013 1057.73 456.033 1055.3 455.646 1052.7C454.747 1046.66 454.719 1040.18 454.732 1034.06C454.743 1028.79 455.378 1022.09 459.588 1018.34C460.763 1017.3 461.472 1016.73 463.089 1016.9L462.963 1018.1C461.114 1020.33 459.14 1022.55 458.205 1025.34C456.322 1030.97 457.598 1052.84 457.455 1060.32Z"/><path fill="#BCB7B7" d="M1014.64 677.356C1017.42 687.794 1016.26 705.818 1015.45 716.861L1014.57 716.979C1013.76 705.427 1012.52 688.595 1014.64 677.356Z"/><path fill="#6A6A6E" d="M956.493 899.255L956.041 898.216C956.632 894.609 968.115 875.442 971.008 872.877L971.697 874.352C967.125 882.468 962.623 892.236 956.493 899.255Z"/><path fill="#BCB7B7" d="M539.91 1024.91L539.134 1024.27C539.31 1023.92 539.448 1023.54 539.663 1023.2C541.744 1019.95 556.558 1010.9 560.538 1009.59C557.231 1013.37 544.49 1023.8 539.91 1024.91Z"/><path fill="#9B9B9D" d="M934.015 931.85L933.163 930.524C934.5 925.276 941.484 917.498 945.353 913.706L946.041 914.94C942.934 921.311 938.83 926.679 934.015 931.85Z"/><path fill="#6A6A6E" d="M456.904 1102.12L456.046 1104.64C455.933 1104.51 455.801 1104.39 455.708 1104.24C453.784 1101.16 454.895 1085.19 456.016 1081.3L456.862 1081.55C456.954 1088.41 456.968 1095.26 456.904 1102.12Z"/><path fill="#BCB7B7" d="M666.025 985.67C666.458 984.047 667.824 982.668 668.999 981.516C671.467 979.095 674.66 977.164 678.165 977.112C674.821 980.596 671.018 984.879 666.025 985.67Z"/><path fill="#C70810" d="M753.052 318.379C753.121 313.31 752.881 299.668 757.114 296.174C757.821 295.59 758.373 295.942 759.2 296.074C760.501 297.264 761.216 298.528 762.068 300.04C761.97 308.466 761.117 316.79 761.113 325.262C762.595 341.922 760.388 354.254 760.041 370.248C759.586 391.189 760.253 412.165 759.901 433.113C759.603 445.473 761.517 456.841 763.112 469.044C765.521 487.463 767.818 506.134 772.933 524.019C773.724 526.782 779.041 542.021 778.942 543.678C778.884 544.665 778.226 545.669 777.76 546.51C776.956 546.897 776.674 547.322 775.771 546.931C768.805 543.916 759.634 515.409 757.289 507.697C756.804 506.103 757.119 505.971 755.681 505.077C751.11 507.83 748.376 521.199 746.175 526.089C744.494 529.821 742.229 533.255 740.548 536.949C740.008 538.135 739.805 539.571 739.081 540.629C737.437 547.565 732.861 554.821 729.232 560.937C713.701 587.111 695.188 609.787 674.493 632.046C668.832 638.134 661.443 643.207 656.448 649.747C658.575 655.591 662.245 661.026 664.965 666.632C669.224 675.413 673.486 684.064 677.973 692.735C679.865 696.394 681.5 700.439 683.712 703.901C684.637 705.35 685.496 706.431 686.894 707.431C690.059 707.957 692.968 705.918 695.437 704.146C701.931 699.482 708.171 694.184 714.201 688.936C717.304 686.235 720.162 682.885 723.746 680.862L725.378 681.144C726.106 682.824 725.655 684.001 725.315 685.701L724.726 688.764C716.684 696.88 706.481 707.757 695.891 712.124L691.752 716.909C692.759 718.32 693.804 719.703 694.886 721.058C700.08 727.447 709.327 732.097 717.51 732.826C727.379 733.706 754.941 723.989 760.481 715.283C764.435 709.07 764.569 694.267 767.937 691.438L768.923 691.615C772.167 695.22 772.387 701.722 774.412 706.15C775.195 707.864 776.434 709.484 778.363 709.945C782.544 710.944 790.177 706.36 793.444 703.864C802.405 697.018 803.356 681.621 804.915 671.367C805.343 668.556 805.554 666.665 807.917 664.915C814.827 666.367 811.42 682.165 816.151 686.909C817.079 687.839 818.238 688.081 819.489 687.736C822.085 687.021 824.472 684.231 826.219 682.271C839.805 667.035 832.163 658.876 837.252 650.373L838.444 650.146C841.628 652.506 842.422 657.079 845.839 659.548C847.567 660.796 849.644 661.296 851.747 660.942C857.897 659.907 863.843 653.795 867.184 648.733C874.842 637.13 877.789 615.218 876.84 601.509C876.662 598.937 875.773 596.511 875.463 593.984C875.274 592.445 875.741 591.425 876.639 590.195C884.063 590.424 891.344 592.435 898.758 593.065C904.162 593.523 909.617 593.964 915.037 594.108C919.042 594.214 923.281 593.871 927.246 594.32C929.058 594.526 931.036 595.127 932.564 596.14C935.506 598.09 936.512 601.177 937.267 604.448C938.731 611.318 939.553 619.735 935.631 625.973C933.331 629.63 929.576 631.533 925.427 632.333C919.963 633.385 912.758 633.022 907.364 631.67C903.37 631.188 899.463 631.127 895.444 631.126C886.692 636.518 884.986 648.099 880.809 657.031C877.276 667.794 873.381 684.933 862.324 690.716C861.613 691.091 860.878 691.418 860.125 691.698C855.486 693.322 850.972 695.898 846.754 698.407C842.024 703.478 837.325 708.923 830.799 711.704C825.755 714.425 820.699 717.327 815.977 720.587C809.38 725.141 803.658 729.955 796.377 733.468C792.371 735.4 788.085 737.642 783.766 738.766C778.773 740.066 773.23 740.432 768.557 742.665C764.41 749.645 758.598 756.118 750.771 758.97C738.514 764.554 728.185 768.224 714.546 767.957L711.322 772.68C713.427 782.189 714.169 791.692 715.922 801.216C719.176 814.288 718.429 835.12 715.354 848.32C713.168 860.932 710.34 874.629 706.131 886.745C703.762 893.566 700.654 899.955 697.801 906.558C693.883 919.813 680.753 933.616 668.706 940.116C666.861 941.112 665.093 942.04 663.075 942.632C657.937 943.301 652.444 946.038 647.551 947.858C636.353 952.177 623.742 953.864 612.345 949.012C602.275 947.014 592.719 942.462 584.376 936.54C561.645 920.406 549.484 893.66 545.052 866.841C541.446 845.012 541.721 814.221 550.136 793.638C552.028 789.008 554.926 784.623 557.573 780.396C568.507 762.934 581.408 751.577 599.615 741.858C615.469 733.395 636.682 726.578 653.948 720.673C658.46 719.13 667.169 718.22 669.917 714.381C670.023 713.06 669.906 712.056 669.443 710.827C668.127 707.338 665.816 704.126 664.095 700.812C661.47 695.756 659.216 690.37 657.303 685.005C653.949 675.604 653.065 665.233 648.921 656.157C644.64 660.669 603.788 693.377 600.627 693.723C599.716 693.823 599.91 693.608 599.132 692.822L598.881 691.956C603.653 683.054 612.97 674.658 619.678 666.991C626.978 658.648 633.6 649.814 640.755 641.369C646.763 634.278 653.385 627.942 659.195 620.624C673.678 602.381 685.72 582.613 697.722 562.702C703.669 552.837 710.072 542.916 715.34 532.679C722.139 519.47 727.522 505.957 732.392 491.953C735.457 483.14 738.672 474.326 740.905 465.257C749.361 430.913 749.711 394.848 750.191 359.675C750.309 351.03 750.905 342.276 751.643 333.661C751.972 329.818 752.855 325.491 752.671 321.666C752.606 320.307 752.306 319.613 753.052 318.379ZM561.366 794.931C561.348 794.979 561.339 795.032 561.31 795.075C560.956 795.612 560.456 796.232 560.156 796.826C558.736 799.632 558.171 803.481 557.402 806.538C553.145 823.458 551.169 844.05 555.551 861.124C560.287 879.572 571.677 898.872 588.508 908.618C605.828 918.648 628.774 919.242 647.696 914.053C668.672 908.3 683.16 896.798 693.732 877.908C709.903 849.012 708.622 810.488 699.752 779.467C697.376 771.157 680.444 726.322 673.737 724.389C669.93 723.292 627.553 739.16 622.041 741.666C615.322 744.722 609.523 748.891 602.501 751.585C602.243 751.684 601.981 751.774 601.721 751.868C601.542 752.053 601.366 752.241 601.185 752.423C596.763 756.874 591.327 760.34 586.39 764.195C575.878 772.404 567.562 783.149 561.366 794.931Z"/><path fill="#DFB6B9" d="M656.448 649.747C656.079 649.71 655.842 649.32 655.553 649.087C656.088 645.9 673.826 629.348 677.483 625.351C690.98 610.599 703.755 595.989 715.3 579.626C719.857 573.167 735.718 543.534 739.081 540.629C737.437 547.565 732.861 554.821 729.232 560.937C713.701 587.111 695.188 609.787 674.493 632.046C668.832 638.134 661.443 643.207 656.448 649.747Z"/><path fill="#C32C3C" d="M753.052 318.379C753.121 313.31 752.881 299.668 757.114 296.174C757.821 295.59 758.373 295.942 759.2 296.074C760.501 297.264 761.216 298.528 762.068 300.04C761.97 308.466 761.117 316.79 761.113 325.262L760.303 325.579L759.864 327.496C759.771 327.886 759.663 328.273 759.571 328.665C757.849 336.056 758.696 360.383 758.604 369.739C757.391 364.771 757.921 359.059 757.829 353.953C757.714 347.62 757.132 341.298 757.069 334.965C756.996 327.726 757.552 320.359 756.837 313.145C756.642 311.185 756.58 310.835 755.085 309.584C754.236 309.911 755.532 315.089 753.052 318.379Z"/><path fill="#DFB6B9" d="M758.604 369.739C758.696 360.383 757.849 336.056 759.571 328.665C759.663 328.273 759.771 327.886 759.864 327.496L760.303 325.579L761.113 325.262C762.595 341.922 760.388 354.254 760.041 370.248C759.586 391.189 760.253 412.165 759.901 433.113C759.708 434.855 759.714 437.229 758.989 438.79C757.962 415.829 758.501 392.718 758.604 369.739Z"/><path fill="#DFB6B9" d="M598.881 691.956C611.425 687.783 641.184 655.776 648.152 655.079L648.921 656.157C644.64 660.669 603.788 693.377 600.627 693.723C599.716 693.823 599.91 693.608 599.132 692.822L598.881 691.956Z"/><path fill="#BCB7B7" d="M697.801 906.558C693.883 919.813 680.753 933.616 668.706 940.116C666.861 941.112 665.093 942.04 663.075 942.632L662.799 941.766C671.965 935.533 680.085 930.287 686.807 921.22C690.365 916.419 693.575 910.763 697.801 906.558Z"/><path fill="#BCB7B7" d="M860.125 691.698C860.595 690.538 860.321 690.903 861.105 690.056C864.906 685.953 868.011 681.501 870.796 676.643C872.67 673.373 878.599 658.159 880.809 657.031C877.276 667.794 873.381 684.933 862.324 690.716C861.613 691.091 860.878 691.418 860.125 691.698Z"/><path fill="#DFB6B9" d="M723.746 680.862L725.378 681.144C726.106 682.824 725.655 684.001 725.315 685.701L724.726 688.764C716.684 696.88 706.481 707.757 695.891 712.124L695.902 711.605C697.706 710.332 699.48 709.017 701.222 707.66C708.831 701.682 722.499 691.088 723.746 680.862Z"/><path fill="#DFB6B9" d="M612.345 949.012C617.534 948.085 623.982 949.138 629.32 948.997C635.361 948.836 641.562 947.671 647.551 947.858C636.353 952.177 623.742 953.864 612.345 949.012Z"/><path fill="#DFB6B9" d="M907.364 631.67C913.216 630.583 919.075 631.668 924.932 631.121C928.254 630.81 931.059 629.765 933.203 627.092C937.654 621.545 937.173 611.658 936.414 604.96L937.267 604.448C938.731 611.318 939.553 619.735 935.631 625.973C933.331 629.63 929.576 631.533 925.427 632.333C919.963 633.385 912.758 633.022 907.364 631.67Z"/><path fill="#DFB6B9" d="M715.922 801.216C719.176 814.288 718.429 835.12 715.354 848.32C714.903 842.637 715.538 836.701 715.55 830.981C715.572 821.254 714.79 810.853 715.922 801.216Z"/><path fill="#BCB7B7" d="M750.771 758.97L750.91 758.161C754.98 754.233 763.726 744.516 768.557 742.665C764.41 749.645 758.598 756.118 750.771 758.97Z"/><path fill="#DFB6B9" d="M830.799 711.704C832.649 708.134 842.933 699.646 846.754 698.407C842.024 703.478 837.325 708.923 830.799 711.704Z"/><path fill="#C70810" d="M639.898 855.078C631.611 855.235 622.636 855.904 616.219 849.507C613.352 846.649 611.983 842.901 611.989 838.881C612.009 824.698 623.813 807.266 633.674 797.703C638.381 793.137 646.775 785.01 653.731 785.133C654.842 785.597 655.683 785.928 656.406 786.962C659.666 791.623 656.757 801.353 655.46 806.483L650.294 809.831C648.152 809.633 646.023 809.249 643.879 809.038C640.582 808.713 637.414 809.359 634.892 811.624C631.859 814.349 625.932 821.49 626.004 825.656C626.138 833.363 651.623 828.024 658.378 835.141C661.393 838.317 660.056 844.332 659.821 848.373C656.305 857.58 647.873 872.752 638.599 876.836C637.456 877.339 636.313 877.597 635.098 877.855C626.898 881.196 608.194 885.93 599.832 882.861L599.619 881.88C603.51 878.047 611.894 876.402 617.092 874.574C623.45 872.339 638.921 867.353 642.002 860.941C642.267 858.706 640.94 856.96 639.898 855.078Z"/><path fill="#DFB6B9" d="M635.098 877.855L634.85 877.317C645.703 870.411 653.15 860.346 657.703 848.289C658.142 847.127 658.091 846.917 659.049 846.08L659.821 848.373C656.305 857.58 647.873 872.752 638.599 876.836C637.456 877.339 636.313 877.597 635.098 877.855Z"/><path fill="#DFB6B9" d="M561.366 794.931C561.7 790.544 564.635 785.721 567.027 782.09C573.094 772.879 590.712 754.128 601.721 751.868C601.542 752.053 601.366 752.241 601.185 752.423C596.763 756.874 591.327 760.34 586.39 764.195C575.878 772.404 567.562 783.149 561.366 794.931Z"/><path fill="#C70810" d="M556.65 523.884C556.904 531.482 556.579 576.058 552.446 580.761C551.395 581.958 550.618 582.698 549.039 582.871C547.138 579.668 546.011 486.988 546.164 477.302C546.323 467.225 546.68 443.701 548.86 434.89C549.416 432.644 550.481 431.104 552.264 429.69C553.862 429.297 554.899 429.462 556.321 430.262C570.046 437.985 584.617 480.491 588.163 495.279C592.122 511.79 593.777 552.674 591.611 569.573C589.666 584.741 584.929 603.215 576.737 616.213C569.075 628.372 559.536 636.809 545.222 639.884C538.362 641.358 531.438 640.518 524.505 640.472C524.244 646.882 525.073 653.178 524.915 659.536C525.11 672.858 524.774 689.637 515.053 700.076C511.473 703.92 506.398 705.431 502.289 708.507C494.13 714.613 488.41 723.422 478.796 727.817C471.467 730.958 462.828 734.764 454.77 734.45C453.156 734.387 451.018 733.843 450.262 735.758C448.898 739.215 449.315 746.909 450.294 750.494C454.23 762.265 452.027 805.446 447.991 817.829C445.484 832.427 441.348 846.113 436.605 860.086C432.808 873.21 415.791 893.272 404.011 900.141C402.99 900.736 401.831 901.224 400.72 901.626C397.38 903.951 392.559 905.557 388.715 906.994C373.377 912.729 361.079 913.684 345.263 910.108C339.511 908.807 333.908 907.379 328.549 904.871C307.176 894.872 291.656 874.39 283.975 852.538C280.673 843.146 279.374 833.238 278.401 823.369C275.742 796.395 277.534 772.355 289.557 747.571C305.653 714.39 342.62 698.72 375.857 688.115C384.724 685.286 394.232 683.274 402.877 679.997C405.01 679.188 407.895 677.834 408.738 675.544C409.608 673.18 404.101 665.322 403.068 662.776C398.814 652.287 386.061 613.016 390.787 603.407C391.311 602.341 391.03 602.723 392.337 602.294C394.582 603.254 396.067 605.629 397.193 607.709C399.478 611.931 400.806 616.81 402.609 621.263C408.354 635.449 413.685 650.177 420.627 663.824C422.17 666.858 423.836 670.379 427.255 671.492C437.25 669.436 454.578 652.954 464.341 647.054L465.927 646.051L466.67 646.366C466.974 648.671 466.381 650.07 464.996 651.923C459.819 658.852 442.574 674.374 434.1 676.431C433.667 676.877 432.873 677.66 432.544 678.156C431.653 679.5 431.666 680.536 432.067 682.052C433.321 686.792 439.411 691.038 443.498 693.396C451.248 697.866 461.372 699.731 470.073 697.164C485.752 692.537 494.209 677.744 495.003 662.19C495.219 657.954 494.132 648.877 496.191 645.319L498.015 644.841C504.882 647.327 501.314 661.272 504.987 666.715C505.993 668.207 506.304 668.317 507.947 668.706C509.211 668.358 510.178 667.958 511.207 667.151C515.237 663.993 516.27 658.797 517.083 654.017C518.171 647.624 518.419 641.273 517.058 634.905C512.881 615.368 490.511 579.788 481.141 560.138C477.851 553.24 474.258 546.166 472.887 538.586C471.958 533.455 472.474 528.936 472.829 523.813C472.962 521.887 472.65 519.289 473.138 517.462C473.549 515.926 473.789 515.786 475.096 515.148C475.683 515.408 476.353 515.531 476.856 515.93C479.69 518.176 482.547 526.928 484.085 530.387C492.949 550.318 511.713 597.603 531.918 605.565C538.037 607.977 543.791 607.109 549.621 604.371C562.981 598.098 571.575 589.401 576.612 575.405C583.428 556.468 580.992 523.874 574.121 505.228C571.777 498.868 567.8 493.681 565.096 487.624C564.994 487.396 564.909 487.16 564.815 486.927C563.316 485.606 562.415 484.436 560.445 483.99C558.217 486.042 558.128 489.403 557.99 492.299C557.544 501.653 558.983 511.609 557.228 520.822C557.034 521.842 556.854 522.865 556.65 523.884ZM287.753 792.611C288.163 796.931 287.624 801.566 287.838 805.954C288.567 820.973 292.157 836.208 300.104 849.099C308.874 863.325 320.437 872.604 336.757 876.356C359.484 881.58 384.55 879.992 404.544 867.251C421.043 856.737 433.009 835.958 437.113 817.111C439.606 805.664 440.164 794.792 440.175 783.114C440.182 776.019 440.503 768.664 439.76 761.604C437.971 744.594 431.479 728.291 425.154 712.542C421.783 704.149 418.717 695.272 413.82 687.634C396.885 689.718 353.684 703.438 339.427 712.573C333.03 717.518 326.122 721.657 319.892 726.846C298.303 744.825 292.073 765.999 287.753 792.611Z"/><path fill="#DFB6B9" d="M478.796 727.817L478.683 726.805C485.305 721.256 491.473 715.088 498.261 709.755C502.58 706.362 507.459 703.663 511.692 700.175C524.425 689.682 522.507 670.349 524.085 655.602L524.915 659.536C525.11 672.858 524.774 689.637 515.053 700.076C511.473 703.92 506.398 705.431 502.289 708.507C494.13 714.613 488.41 723.422 478.796 727.817Z"/><path fill="#DFB6B9" d="M400.72 901.626C401.478 899.746 412.014 891.308 414.315 888.951C423.795 879.24 428.431 871.106 435.622 860.013L436.605 860.086C432.808 873.21 415.791 893.272 404.011 900.141C402.99 900.736 401.831 901.224 400.72 901.626Z"/><path fill="#DFB6B9" d="M450.294 750.494C454.23 762.265 452.027 805.446 447.991 817.829C446.559 810.956 449.714 801.58 450.017 794.418C450.349 785.834 450.418 777.242 450.224 768.655C450.116 762.678 449.584 756.422 450.294 750.494Z"/><path fill="#DFB6B9" d="M464.341 647.054L465.927 646.051L466.67 646.366C466.974 648.671 466.381 650.07 464.996 651.923C459.819 658.852 442.574 674.374 434.1 676.431C436.067 674.258 439.182 672.391 441.554 670.591C449.511 664.554 460.532 656.609 464.341 647.054Z"/><path fill="#D65968" d="M556.65 523.884C555.381 516.922 555.325 487.81 558.445 482.091C559.326 481.632 559.519 481.214 560.523 481.614C563.033 482.615 563.919 484.536 564.815 486.927C563.316 485.606 562.415 484.436 560.445 483.99C558.217 486.042 558.128 489.403 557.99 492.299C557.544 501.653 558.983 511.609 557.228 520.822C557.034 521.842 556.854 522.865 556.65 523.884Z"/><path fill="#C70810" d="M347.611 784.415C359.746 789.987 365.235 798.574 373.838 808.066C376.446 809.422 381.047 806.458 381.765 808.821C382.691 811.872 381.436 814.034 384.012 816.418C385.762 820.024 384.912 826.84 384.627 830.796C383.486 832.47 382.211 834.371 380.639 835.673C379.375 836.721 378.584 836.745 377.012 836.641C374.401 834.47 371.909 822.948 369.596 818.793C357.1 796.346 356.391 812.287 345.019 808.367C342.24 807.409 340.224 805.224 338.945 802.636C337.287 799.281 336.931 795.171 338.31 791.661C339.959 787.46 343.813 786.149 347.611 784.415Z"/><path fill="#AD0B19" d="M373.838 808.066L374.385 807.314C375.297 806.045 376.816 804.515 376.544 802.853C373.394 783.595 355.42 776.102 357.667 753.178C358.058 749.189 358.975 744.696 361.204 741.32C362.555 739.274 364.466 737.691 366.906 737.178C370.177 736.49 373.287 737.858 375.869 739.786C381.729 744.163 384.879 750.793 385.695 757.957C385.932 760.036 385.894 761.403 384.719 763.226C383.877 763.53 383.477 763.914 382.584 763.534C377.623 761.426 376.102 753.329 370.351 752.657C368.653 753.25 367.193 754.932 366.615 756.658C363.909 764.737 378.095 786.495 380.581 795.081C382.627 802.149 382.63 809.279 384.012 816.418C381.436 814.034 382.691 811.872 381.765 808.821C381.047 806.458 376.446 809.422 373.838 808.066Z"/><path fill="#DFB6B9" d="M287.753 792.611L287.387 793.228L286.975 793.279C286.684 772.882 294.732 752.071 307.587 736.396C313.473 729.218 330.153 713.528 339.427 712.573C333.03 717.518 326.122 721.657 319.892 726.846C298.303 744.825 292.073 765.999 287.753 792.611Z"/><path d="M546.449 72.7489C548.178 69.2821 549.646 65.2017 551.68 61.9659C557.109 53.3296 568.511 46.1156 578.035 42.9456C591.578 38.4374 610.524 38.2022 623.43 44.8666C634.999 50.8414 637.937 60.5603 644.655 70.5185C662.046 57.5407 690.495 52.3394 711.859 55.2389C725.905 57.1452 739.94 64.6382 748.449 76.1106C759.187 90.5867 764.659 108.816 761.933 126.722C760.634 135.252 754.91 154.624 748.221 159.716C738.259 167.3 725.596 169.92 714.408 174.839C713.004 175.456 712.378 175.554 711.505 176.833C712.695 182.38 719.619 187.472 723.377 191.671C730.021 199.094 735.827 207.307 741.12 215.737C755.456 238.566 757.101 251.477 746.927 276.28C745.819 278.98 745.045 282.961 743.755 285.339C743.417 285.962 743.206 286.074 742.722 286.47C738.606 295.16 729.978 304.885 720.922 308.611C720.191 308.433 719.482 308.306 718.8 307.984C718.324 306.322 718.503 305.626 719.286 304.071C721.622 299.434 724.884 295.158 727.359 290.554C734.762 276.779 740.74 257.465 737.561 241.738C735.198 230.047 726.664 218.221 716.675 211.792C705.789 204.785 693.458 204.828 681.207 207.619C660.722 212.285 636.769 224.474 620.039 237.015C617.642 238.812 614.225 240.773 612.681 243.339C612.036 244.412 612.329 244.259 611.318 244.907C611.127 245.03 610.913 245.113 610.71 245.216C587.171 264.993 561.979 286.71 544.961 312.617C539.487 320.95 535.129 330.45 530.221 339.167C528.866 345.131 524.114 349.66 521.734 355.207C520.14 358.921 519.766 362.961 519.267 366.934L516.541 370.101C514.7 368.241 513.001 366.41 511.759 364.086C509.062 359.039 507.015 353.555 504.559 348.375C500.168 339.112 495.491 329.962 490.897 320.797C484.552 308.141 476.424 295.521 471.57 282.238C469.72 277.176 469.069 271.77 469.067 266.404C469.062 241.096 480.902 223.191 500.209 207.94C514.165 196.915 529.432 186.466 546.211 180.266C563.983 173.699 582.179 170.359 600.978 168.504C608.502 167.762 616.17 168.196 623.722 167.854C645.335 166.819 666.861 164.422 688.172 160.677C695.401 159.427 702.502 158.455 709.491 156.088C719.123 152.826 728.363 148.029 735.559 140.738C742.082 134.129 748.423 124.805 748.097 115.202C747.664 102.45 738.325 90.5319 729.149 82.3997C714.628 69.5318 696.004 70.7485 677.792 71.8778C667.768 72.4995 652.366 75.5015 645.383 83.3417C643.314 86.8763 636.548 93.3565 632.502 94.5734C631.513 94.8707 630.557 94.5867 629.599 94.3456C630.535 90.1612 630.498 85.4325 630.714 81.1544C624.903 70.7172 615.187 63.0127 603.7 59.7326C593.872 56.9449 579.938 57.1878 571.01 62.5782C567.61 64.6313 564.551 67.7402 561.603 70.3902C550.531 80.3428 557.726 81.9504 555.025 93.177L554.082 93.4602C549.08 91.4931 545.114 87.1726 540.439 84.4684C528.018 77.2849 511.305 75.1657 497.477 78.9387C492.533 80.2878 483.194 83.221 480.605 87.7284C473.736 95.3899 466.135 100.005 460.865 109.233C460.281 110.871 459.689 112.358 458.844 113.881C456.713 117.717 457.436 120.924 458.632 124.928C459.691 128.47 461.062 131.935 462.372 135.391C460.58 137.252 457.174 136.978 454.697 137.031C450.737 137.116 446.731 136.784 442.783 137.077C434.206 137.715 418.379 141.345 412.091 147.598C411.484 148.202 411.069 148.88 410.518 149.527C409.882 150.274 409.572 150.508 408.644 150.738C398.715 158.601 389.584 165.923 381.434 175.737C379.186 177.934 378.575 180.032 377.022 182.638C370.145 194.183 362.685 208.662 362.459 222.43C362.165 240.405 361.018 256.032 374.504 269.764C382.585 277.993 393.836 283.652 404.177 288.515C390.684 290.548 376.932 287.192 365.892 279.17C350.874 268.053 340.04 243.471 337.507 225.402C334.458 203.651 340.167 180.545 353.455 163.011C367.33 144.702 390.205 132.887 412.793 129.957C419.736 129.056 426.998 127.887 434.001 127.995C436.153 126.393 438.221 124.913 440.592 123.642C435.49 112.592 433.954 103.584 438.367 91.8322C444.129 76.4891 460.709 66.5909 474.938 60.2498C489.861 53.5995 510.014 49.7905 525.721 55.9118C535.009 59.5314 539.099 66.8907 546.449 72.7489ZM495.304 239.855C493.352 244.723 489.852 249.636 488.413 254.514C487.624 257.186 489.037 259.491 488.571 262.141C488.145 264.556 486.596 266.716 485.942 269.084C485.042 272.344 486.304 276.734 487.397 279.849C490.484 288.648 495.884 297.214 500.055 305.562C503.282 312.023 505.926 319.283 509.878 325.319C510.983 327.005 511.848 328.162 513.857 328.552C519.968 325.087 524.962 314.54 529.019 308.775C540.951 291.817 553.581 275.826 567.119 260.113C594.068 228.835 636.67 200.198 678.469 195.378C684.771 194.651 692.579 194.311 698.878 195.017C702.027 195.37 705.062 196.732 708.239 196.494L708.356 195.35C706.839 191.292 692.71 175.067 688.924 172.21C687.169 170.886 684.459 171.291 682.401 171.531C676.919 172.171 671.438 173.94 665.985 174.973C655.874 176.887 645.651 178.339 635.502 180.077C611.75 184.146 587.704 187.156 564.06 191.793C555.13 193.544 527.762 201.464 522.993 208.726C522.223 209.899 522.518 209.671 521.498 210.518C521.303 210.68 521.088 210.818 520.883 210.968C507.947 221.066 504.383 226.855 495.304 239.855Z"/><path fill="#BCB7B7" d="M530.221 339.167C529.921 338.353 529.682 338.059 529.751 337.25C530.058 333.642 533.562 328.223 535.388 325.075C546.749 305.329 560.827 287.275 577.21 271.445C582.699 266.133 604.342 245.116 610.71 245.216C587.171 264.993 561.979 286.71 544.961 312.617C539.487 320.95 535.129 330.45 530.221 339.167Z"/><path fill="#9B9B9D" d="M381.434 175.737C381.058 174.617 381.189 175.269 381.208 173.755C385.558 165.787 397.468 154.597 405.531 150.757C407.031 150.042 407.193 150.154 408.644 150.738C398.715 158.601 389.584 165.923 381.434 175.737Z"/><path fill="#BCB7B7" d="M460.865 109.233L460.386 107.582C462.449 100.104 469.9 92.869 476.408 88.8662C477.996 87.8894 478.757 87.2657 480.605 87.7284C473.736 95.3899 466.135 100.005 460.865 109.233Z"/><path fill="#BCB7B7" d="M718.8 307.984C723.831 304.523 728.793 301.042 733.178 296.768C735.885 294.13 739.667 287.431 742.722 286.47C738.606 295.16 729.978 304.885 720.922 308.611C720.191 308.433 719.482 308.306 718.8 307.984Z"/><path fill="#BCB7B7" d="M629.599 94.3456C633.271 91.4479 640.855 83.5779 645.383 83.3417C643.314 86.8763 636.548 93.3565 632.502 94.5734C631.513 94.8707 630.557 94.5867 629.599 94.3456Z"/><path fill="#BCB7B7" d="M495.304 239.855C494.934 238.813 494.573 238.444 494.9 237.345C497.45 228.786 512.218 213.418 520.078 209.326L520.805 209.65L520.883 210.968C507.947 221.066 504.383 226.855 495.304 239.855Z"/><path d="M325.092 1084.26C323.177 1087.86 319.057 1093.31 315.485 1095.22L314.451 1094.87C311.28 1088.66 318.066 1053.17 321.476 1045.81C323.337 1041.79 332.077 1031.76 331.735 1029.16C331.015 1023.7 309.729 1008.8 304.761 1004.12C294.158 994.116 285.07 982.543 276.191 971.025C235.241 917.905 207.946 853.249 206.259 785.526C205.72 763.921 206.233 742.007 209 720.552C215.502 670.122 233.949 623.221 259.484 579.535C265.693 568.913 272.059 558.206 279.305 548.253C291.43 531.599 305.25 515.841 319.431 500.922C367.733 450.103 419.47 417.998 483.88 391.49C489.474 389.188 505.768 381.067 510.914 381.24C512.206 381.283 512.575 382.191 513.458 383.054L513.904 383.484C514.034 384.84 514.272 386.448 513.862 387.769C512.012 393.725 495.139 398.379 489.61 400.412C459.519 411.476 431.389 427.431 404.896 445.325C402.383 447.023 399.634 448.663 397.38 450.702C394.211 453.571 391.885 457.053 388.163 459.299C387.98 459.409 387.792 459.511 387.606 459.616C347.895 491.59 306.749 533.958 281.262 578.237C274.425 590.114 268.64 602.361 262.607 614.646C260.006 619.943 257.753 625.392 254.701 630.453C251.785 635.989 250.68 641.974 248.398 647.784C240.996 666.629 235.033 686.947 231.642 706.926C229.146 721.627 228.411 737.38 228.1 752.267C227.365 787.454 229.71 821.785 240.256 855.622C254.712 903.067 279.778 946.599 313.554 982.919C322.184 992.153 331.413 1000.44 340.631 1009.04C343.886 1012.08 342.261 1018.33 345.014 1020.11C348.712 1019.99 351.966 1018.37 355.61 1018.14C366.746 1017.41 379.054 1026.14 386.831 1033.45C410.996 1056.14 422.201 1097.79 423.01 1130.3C423.424 1146.89 416.294 1164.52 411.445 1180.13C411.389 1180.31 411.253 1180.45 411.157 1180.61C407.399 1187.14 402.17 1194.81 394.404 1196.78C393.597 1196.98 393.744 1196.94 393.069 1197.04C390.767 1197.23 388.494 1198.06 386.221 1198.5C378.526 1199.98 371.092 1199.35 363.966 1195.94C349.427 1188.98 336.088 1172.17 329.527 1157.8C328.003 1154.46 327.105 1150.67 325.896 1147.18C300.608 1142.48 289.491 1152.82 268.759 1164.04C263.424 1166.93 257.447 1169.03 251.738 1171.06C238.803 1175.65 223.021 1174.73 210.663 1168.73C205.045 1166 198.446 1163.01 196.418 1156.6C194.409 1150.25 195.462 1143.54 198.647 1137.77C208.081 1120.69 235.786 1110.87 254.142 1110.17C259.477 1109.96 264.788 1110.89 270.079 1111.45C280.085 1112.48 290.197 1111.4 299.763 1108.29C307.808 1105.69 315.851 1101.62 322.852 1096.89C329.564 1092.35 335.685 1086.21 343.654 1083.95C347.992 1082.72 352.583 1083.06 356.491 1085.43C363.499 1089.67 367.368 1099.56 369.415 1107.14C372.293 1117.8 374.667 1132.83 368.554 1142.76C362.431 1152.7 349.613 1145.42 340.903 1147.72C339.572 1148.08 339.427 1148.25 338.756 1149.37L339.343 1150.9C342.941 1153.91 357.783 1160.67 362.424 1161.47C368.766 1162.57 374.511 1161.26 379.73 1157.47C387.08 1152.13 391.721 1142.9 392.823 1133.95C395.478 1112.4 388.396 1093.09 375.089 1076.32C367.904 1067.26 361.364 1063.42 349.816 1062.1C347.525 1063.34 345.133 1064.36 344.15 1066.92C338.286 1072.4 331.919 1080.15 325.092 1084.26Z"/><path fill="#BCB7B7" d="M254.701 630.453C254.396 629.589 254.154 629.364 254.397 628.447C257.026 618.506 262.584 608.074 267.292 598.958C292.259 551.326 326.113 508.914 367.027 474.011C372.784 469.149 378.98 463.083 385.54 459.428C386.306 459.001 386.794 459.393 387.606 459.616C347.895 491.59 306.749 533.958 281.262 578.237C274.425 590.114 268.64 602.361 262.607 614.646C260.006 619.943 257.753 625.392 254.701 630.453Z"/><path fill="#BCB7B7" d="M393.069 1197.04C394.014 1194.94 397.688 1192.71 399.465 1191.07C403.519 1187.34 406.942 1183.52 410.281 1179.12L411.157 1180.61C407.399 1187.14 402.17 1194.81 394.404 1196.78C393.597 1196.98 393.744 1196.94 393.069 1197.04Z"/><path fill="#BCB7B7" d="M325.092 1084.26C325.131 1083.94 325.125 1083.61 325.21 1083.3C326.318 1079.26 335.885 1070.63 339.598 1068.25C341.333 1067.14 342.148 1066.5 344.15 1066.92C338.286 1072.4 331.919 1080.15 325.092 1084.26Z"/><path fill="#C70810" d="M653.598 546.811C646.899 531.346 640.907 515.624 634.051 500.201C625.681 481.373 616.365 462.89 607.411 444.329C597.477 423.737 587.418 403.321 577.855 382.549C571.812 369.423 565.963 356.945 561.173 343.265C559.299 337.913 553.678 320.336 555.906 315.739C557.256 315.091 557.741 314.883 559.286 315.067C563.82 315.606 568.873 318.925 572.851 321.031C599.361 335.062 624.134 356.212 642.667 379.765C657.39 398.474 682.022 437.46 679.131 461.602C686.464 499.058 679.542 543.95 662.976 578.212C660.863 582.582 658.847 587.476 656.112 591.485C655.832 591.896 655.524 592.287 655.218 592.679C652.453 597.206 648.515 599.182 647.317 604.833C644.231 610.966 637.554 619.681 631.405 623.024C629.979 624.98 628.303 626.833 626.7 628.644C621.912 634.051 616.228 639.369 610.372 643.607C603.535 648.555 564.898 671.567 557.641 671.676C556.266 671.696 556.275 671.665 555.285 670.626C558.632 663.866 568.804 658.297 574.25 652.925C581.492 645.702 588.57 638.318 595.479 630.778C617.814 605.937 638.247 576.453 653.598 546.811ZM662.532 529.347C671.351 510.654 669.185 471.8 662.336 452.619C652.179 424.176 632.801 399.636 610.742 379.416C606.321 375.364 600.457 369.528 594.89 367.117C594.011 366.736 593.146 366.65 592.204 366.532C591.363 368.41 590.671 369.448 591.406 371.556C592.671 375.18 594.902 378.825 596.622 382.275C600.597 390.25 604.633 398.204 608.51 406.227C612.994 415.508 616.792 425.142 620.908 434.591C625.621 445.412 630.668 456.072 635.124 467.006C641.359 482.304 647.431 497.914 652.865 513.512C654.527 518.284 655.886 528.448 658.509 531.921C659.727 532.233 659.398 532.418 660.329 531.833C661.409 531.153 661.854 530.389 662.532 529.347Z"/><path fill="#BA9FA8" d="M655.218 592.679C655.133 591.734 655.065 590.986 655.307 590.034C656.295 586.153 659.147 581.519 660.843 577.805C665.623 567.344 670.871 556.112 673.514 544.884C675.048 538.369 675.933 531.59 677.19 525.008C677.661 522.544 678.743 520.187 679.088 517.726C680.362 508.647 680.144 497.788 679.988 488.597C679.843 480.003 678.256 470.647 679.07 462.151C679.088 461.968 679.111 461.785 679.131 461.602C686.464 499.058 679.542 543.95 662.976 578.212C660.863 582.582 658.847 587.476 656.112 591.485C655.832 591.896 655.524 592.287 655.218 592.679Z"/><path fill="#DFB6B9" d="M631.405 623.024C634.894 616.668 641.372 609.163 646.53 604.08L647.317 604.833C644.231 610.966 637.554 619.681 631.405 623.024Z"/><path fill="#C70810" d="M635.382 309.736C636.461 308.969 637.549 308.263 638.726 307.652C642.904 305.483 647.851 305.883 652.192 307.398C665.538 312.054 673.379 322.617 679.491 334.599C680.418 336.416 681.281 338.127 683.327 338.783L684.651 338.013C685.978 336.101 686.483 334.724 686.29 332.363C685.19 318.938 665.873 295.741 661.236 279.857C659.778 274.862 659.528 269.567 659.962 264.402C660.549 257.429 662.888 249.626 668.564 245.101C671.091 243.086 673.391 242.662 676.56 243.159C682.414 244.076 687.061 248.683 690.227 253.407C693.708 258.599 697.17 267.58 695.48 273.839C695.218 274.807 694.744 274.766 693.928 275.185C686.353 274.409 682.151 265.16 675.046 263.729C673.274 263.373 671.698 264.205 670.445 265.498C668.418 267.588 669.505 270.507 670.282 272.938C672.756 280.682 676.976 287.939 680.415 295.285C691.078 318.06 695.104 333.332 694.88 358.425C694.966 363.051 694.96 368.219 691.664 371.873C690.394 373.281 689.072 374.142 687.146 374.21C687.009 374.004 686.867 373.8 686.735 373.59C686.52 373.251 686.317 372.906 686.105 372.566C683.732 368.754 682.568 364.255 681.077 360.035C677.342 349.463 672.133 340.853 663.886 333.19C652.959 335.764 650.225 338.318 639.451 333.328L639.161 332.877C634.219 325.043 633.347 318.697 635.382 309.736Z"/><path fill="#DFB6B9" d="M687.146 374.21C687.645 373.221 687.424 373.535 688.008 372.772C693.488 365.605 694.052 360.497 693.991 351.728C694.605 353.839 694.658 356.238 694.88 358.425C694.966 363.051 694.96 368.219 691.664 371.873C690.394 373.281 689.072 374.142 687.146 374.21Z"/><path fill="#C70810" d="M972.654 442.275C972.119 439.547 972.865 435.812 972.941 432.963C973.258 421.035 973.907 409.369 969.505 398.036C968.712 395.995 967.674 392.69 966.075 391.18C965.008 390.174 964.145 389.715 962.647 389.996C959.5 390.586 955.52 395.596 953.924 398.171C945.317 412.054 953.453 434.085 956.595 448.5C957.334 451.89 958.74 456.361 956.8 459.361C955.109 460.066 955.094 460.143 953.355 459.61C951.994 458.211 951.182 456.965 950.477 455.132C948.763 450.674 947.782 445.747 946.327 441.162C944.272 434.685 941.747 428.379 939.617 421.931C938.196 417.629 937.759 412.848 937.104 408.38C934.877 393.187 934.448 380.958 941.824 366.85C946.233 358.416 951.782 352.897 961.001 350.009C962.216 350.586 963.42 351.185 964.612 351.806C972.331 355.854 977.166 363.411 979.657 371.561C981.458 377.599 982.609 383.813 983.09 390.096C983.631 397.613 982.701 427.114 979.619 432.989C980.084 439.042 976.312 459.646 972.947 464.747L971.848 465.126C970.034 463.208 970.182 459.165 970.232 456.684C970.334 451.63 972.049 447.171 972.654 442.275Z"/><path fill="#D65968" d="M972.654 442.275C973.27 441.139 972.828 441.655 974.097 440.836L974.973 441.795L974.033 442.372C973.49 444.852 971.762 448.963 972.536 451.307L973.15 451.238C974.827 445.61 976.496 438.968 979.202 433.763C979.337 433.503 979.48 433.247 979.619 432.989C980.084 439.042 976.312 459.646 972.947 464.747L971.848 465.126C970.034 463.208 970.182 459.165 970.232 456.684C970.334 451.63 972.049 447.171 972.654 442.275Z"/><defs><linearGradient id="gradient_0" gradientUnits="userSpaceOnUse" x1="1077.6864" y1="524.68079" x2="998.05408" y2="461.27908"><stop offset="0" stop-color="#E70100"/><stop offset="1" stop-color="#A21822"/></linearGradient></defs><path fill="url(#gradient_0)" d="M981.211 476.75C980.65 476.287 980.438 475.785 980.089 475.157L980.574 474.149C983.669 471.949 988.162 472.848 991.725 473.167C1018.73 472.603 1065.01 469.267 1085.75 488.99C1089.99 493.019 1093.35 498.134 1093.34 504.169C1093.3 508.581 1091.45 512.782 1088.23 515.797C1081.33 522.342 1066.18 525.326 1056.8 524.874C1037 523.921 1019.5 514.388 1002.66 505.026C998.274 502.587 992.281 499.942 988.976 496.104C988.41 495.445 988.155 494.766 987.93 493.944C988.627 492.475 988.593 492.748 989.936 492.106C993.815 492.651 998.013 494.917 1001.65 496.4C1016.68 502.516 1034.92 511.369 1050.94 503.861C1052.71 501.273 1054.18 498.799 1055.54 495.97C1053.33 490.475 1051.14 487.846 1045.61 485.386C1036.94 481.534 1018.33 477.435 1009.07 478.759C1004.64 480.232 998.307 480.118 993.621 480.163C988.769 480.209 984.862 480.307 981.211 476.75Z"/><path fill="#DFB6B9" d="M981.211 476.75C987.718 476.93 994.228 477.011 1000.74 476.992C1003.59 477.029 1006.82 476.701 1009.07 478.759C1004.64 480.232 998.307 480.118 993.621 480.163C988.769 480.209 984.862 480.307 981.211 476.75Z"/><path fill="#C32C3C" d="M981.211 476.75C980.65 476.287 980.438 475.785 980.089 475.157L980.574 474.149C983.669 471.949 988.162 472.848 991.725 473.167L996.865 474.162L988.89 474.554C992.835 475.443 997.173 475.001 1000.74 476.992C994.228 477.011 987.718 476.93 981.211 476.75Z"/><path fill="#C70810" d="M740.129 625.223C739.971 624.891 739.764 624.578 739.654 624.227C738.359 620.114 742.695 612.3 743.982 608.486C746.51 600.995 747.464 590.907 752.833 584.748C761.993 574.239 787.73 568.402 801.119 567.302C803.68 568.495 806.11 569.634 807.881 571.919C812.673 578.106 812.229 591.929 811.435 599.447C810.6 603.315 809.867 607.311 808.304 610.964C801.663 626.482 785.708 637.696 771.884 646.548C769.409 648.132 767.116 650.07 764.077 649.419L762.679 648.035C768.494 638.186 799.239 614.254 797.864 603.496C797.659 601.891 797.209 601.733 795.981 600.883C787.834 599.733 768.1 606.674 760.572 610.108C758.468 611.237 756.086 612.354 754.219 613.848C749.555 617.58 746.477 624.484 740.129 625.223Z"/><path fill="#DFB6B9" d="M762.679 648.035C766.516 646.928 770.458 645.147 773.99 643.294C787.418 636.25 801.504 622.421 807.278 608.214C808.992 603.997 809.231 599.164 810.556 594.787C811.42 596.232 811.31 597.795 811.435 599.447C810.6 603.315 809.867 607.311 808.304 610.964C801.663 626.482 785.708 637.696 771.884 646.548C769.409 648.132 767.116 650.07 764.077 649.419L762.679 648.035Z"/><path fill="#DFB6B9" d="M740.129 625.223C740.467 624.461 740.829 623.918 741.373 623.283C746.605 617.179 751.982 610.68 760.572 610.108C758.468 611.237 756.086 612.354 754.219 613.848C749.555 617.58 746.477 624.484 740.129 625.223Z"/><path d="M823.257 438.919C829.39 442.824 835.752 446.433 841.767 450.511C849.451 455.721 856.768 461.601 864.139 467.246C872.793 472.288 880.736 481.164 887.84 488.194C896.314 496.583 904.812 505.116 912.354 514.366C937.48 545.18 956.364 583.863 966.423 622.278C969.996 635.71 972.707 649.357 974.541 663.135C975.493 670.78 975.289 678.505 976.738 686.097C976.918 687.041 976.897 687.841 976.775 688.789L975.878 689.384C975.309 693.724 974.417 703.182 976.799 706.864C976.926 709.895 976.213 712.522 975.975 715.497C975.187 725.343 974.604 734.666 972.731 744.376C971.429 751.131 969.324 758.717 969.286 765.591C968.188 763.891 966.876 763.002 965.032 762.245C965.605 758.3 966.652 754.404 967.251 750.452C968.478 742.356 969.17 733.608 969.808 725.412C970.371 718.185 970.098 710.771 970.098 703.522C970.099 688.447 969.429 673.417 967.304 658.468C960.431 610.134 939.323 559.36 908.604 521.282C899.283 509.728 889.595 498.939 879.088 488.451C875.988 485.356 872.916 482.18 869.683 479.225C867.933 477.626 865.691 476.212 864.194 474.396C864.013 474.176 863.84 473.951 863.663 473.729C857.138 470.149 851.129 463.674 845.248 458.984C838.556 453.648 831.142 448.846 823.897 444.292C825.255 443.817 825.919 443.969 826.616 442.652C825.543 441.756 824.646 440.991 823.856 439.826C823.653 439.526 823.457 439.221 823.257 438.919Z"/><path fill="#3C3E41" d="M823.257 438.919C829.39 442.824 835.752 446.433 841.767 450.511C849.451 455.721 856.768 461.601 864.139 467.246C863.881 467.236 863.62 467.259 863.366 467.216C858.734 466.438 846.866 453.507 844.101 454.715C847.997 460.201 862.17 466.07 863.663 473.729C857.138 470.149 851.129 463.674 845.248 458.984C838.556 453.648 831.142 448.846 823.897 444.292C825.255 443.817 825.919 443.969 826.616 442.652C825.543 441.756 824.646 440.991 823.856 439.826C823.653 439.526 823.457 439.221 823.257 438.919Z"/><path fill="#C70810" d="M498.272 869.906C500.55 870.066 501.814 870.133 503.437 871.967C509.592 878.919 513.205 891.837 512.575 900.906C504.887 913.574 487.827 926.828 473.586 930.722C471.905 931.471 470.618 932.085 468.728 932.073C465.757 929.936 459.81 905.807 458.177 900.394C458.856 898.766 459.747 897.237 461.043 896.024C469.45 888.155 488.011 877.083 498.272 869.906Z"/><path d="M1002.54 955.19C1009.39 954.923 1016.15 954.771 1022.94 955.887C1024.08 957.002 1025.17 958.136 1026.15 959.399C1029.17 963.318 1030.99 967.719 1030.18 972.738C1029.47 977.204 1027.05 980.904 1023.37 983.525C1014.35 989.965 998.327 992.639 987.607 990.886C979.963 990.324 972.91 993.527 965.423 994.1L964.484 993.282C962.777 988.152 961.483 977.846 962.63 972.479C965.719 969.593 969.808 970.583 973.484 969.158C978.842 967.082 983.965 962.963 989.058 960.202C993.233 957.938 998.02 956.616 1002.54 955.19Z"/><path fill="#C70810" d="M1004.8 523.781C1000.96 521.231 995.456 517.41 993.51 513.117C992.915 511.804 992.894 511.799 993.455 510.405C993.639 510.358 993.817 510.284 994.005 510.265C997.43 509.922 1003.19 515.149 1005.61 517.261C1011.83 520.728 1026.03 530.097 1030.71 534.764C1050.63 545.28 1068.44 557.885 1086.05 571.786C1089.91 574.829 1094.48 577.581 1097.61 581.378L1097.88 582.53C1095.49 584.311 1092.49 583.764 1089.67 583.337C1086.92 582.92 1084.54 582.598 1081.74 582.68C1080.12 584.434 1078.67 585.813 1077.96 588.134C1078.31 592.895 1081.31 600.067 1079.11 604.394C1077.86 605.069 1077.8 605.087 1076.39 604.88L1075.68 603.87C1073.22 597.659 1071.16 591.101 1068.07 585.176C1059.29 568.309 1042.18 553.915 1027.56 542.135C1022.44 539.784 1009.37 528.066 1004.8 523.781Z"/><path fill="#AD0B19" d="M1004.8 523.781C1000.96 521.231 995.456 517.41 993.51 513.117C992.915 511.804 992.894 511.799 993.455 510.405C993.639 510.358 993.817 510.284 994.005 510.265C997.43 509.922 1003.19 515.149 1005.61 517.261C1011.83 520.728 1026.03 530.097 1030.71 534.764L1030.61 535.816C1032.98 537.318 1038.71 540.171 1039.88 542.514C1037.74 544.684 1036.26 542.954 1034.49 546.09C1033.31 545.573 1033.18 545.358 1032.34 544.463C1030.92 542.966 1029.69 542.167 1027.56 542.135C1022.44 539.784 1009.37 528.066 1004.8 523.781Z"/><path fill="#954347" d="M1004.8 523.781C1000.96 521.231 995.456 517.41 993.51 513.117C992.915 511.804 992.894 511.799 993.455 510.405C993.639 510.358 993.817 510.284 994.005 510.265C997.43 509.922 1003.19 515.149 1005.61 517.261C1005.28 517.191 1004.94 517.131 1004.61 517.052C1002.37 516.523 996.459 511.578 995.105 511.971C998.731 515.575 1002.93 518.919 1004.8 523.781Z"/><path fill="#BA9FA8" d="M1075.68 603.87C1077.17 597.188 1075.32 590.01 1077.5 583.588C1079.03 582.357 1079.82 582.677 1081.74 582.68C1080.12 584.434 1078.67 585.813 1077.96 588.134C1078.31 592.895 1081.31 600.067 1079.11 604.394C1077.86 605.069 1077.8 605.087 1076.39 604.88L1075.68 603.87Z"/><path fill="#AD0B19" d="M880.792 337.326C882.681 337.975 884.929 339.057 886.171 340.672C890.512 346.313 893.754 354.734 897.083 361.105C908.486 382.926 919.479 405.013 930.436 427.055C932.494 431.193 934.087 437.953 937.02 441.302C937.898 442.304 938.683 443.375 939.502 444.425C939.683 445.798 940.06 446.332 939.324 447.554C935.056 446.56 929.246 436.5 926.861 432.96C914.288 413.254 900.706 389.201 883.16 373.68C874.147 365.707 863.787 359.386 853.493 353.238C859.801 353.006 869.072 355.539 874.788 353.595C881.62 351.271 877.371 343.065 880.188 338.282C880.379 337.957 880.591 337.645 880.792 337.326Z"/><path d="M284.249 604.184C288.254 594.781 294.865 584.741 300.702 576.339C335.522 526.217 376.505 484.632 428.933 452.895C432.329 450.839 447.643 441.488 450.012 441.061L451.524 443.743C442.06 448.223 431.681 454.493 423.539 461.078C421.33 462.865 419.566 465.017 417.424 466.862C417.4 466.883 417.381 466.908 417.359 466.931C397.224 482.506 376.58 498.606 358.633 516.771C347.288 528.254 336.373 541.343 325.936 553.728C318.343 562.738 305.944 585.096 299.626 590.339C298.654 591.579 298.081 592.687 297.428 594.092C297.013 594.984 297.152 594.675 296.43 595.69C293.447 597.029 292.355 601.694 290.349 604.207C289.016 604.968 288.179 605.81 287.098 606.871L286.041 606.706L284.249 604.184Z"/><path fill="#BCB7B7" d="M299.626 590.339C299.755 589.441 299.718 589.436 300.087 588.431C301.976 583.294 306.659 577.525 309.735 573.013C333.844 537.118 363.631 505.384 397.931 479.054C403.09 475.077 409.088 469.402 414.985 466.79C416.238 466.235 416.165 466.49 417.359 466.931C397.224 482.506 376.58 498.606 358.633 516.771C347.288 528.254 336.373 541.343 325.936 553.728C318.343 562.738 305.944 585.096 299.626 590.339Z"/><path fill="#BCB7B7" d="M290.349 604.207C292.355 601.694 293.447 597.029 296.43 595.69C294.874 603.614 285.456 620.509 281.63 629.289C267.182 662.446 258.636 690.565 254.01 726.52C253.13 733.359 251.786 739.544 251.824 746.536C251.827 747.254 251.725 747.844 251.531 748.531C251.27 747.299 250.989 747.17 250.193 746.25L249.86 746.628L249.387 746.38C249.37 745.19 249.331 743.999 249.324 742.809C249.295 737.74 248.246 731.756 247.167 726.794C248.569 709.986 251.575 692.535 256.964 676.537C257.932 661.977 276.674 619.107 284.249 604.184L286.041 606.706L287.098 606.871C288.179 605.81 289.016 604.968 290.349 604.207Z"/><defs><linearGradient id="gradient_1" gradientUnits="userSpaceOnUse" x1="298.63086" y1="630.97546" x2="243.36754" y2="658.64978"><stop offset="0" stop-color="#111316"/><stop offset="1" stop-color="#4B4A48"/></linearGradient></defs><path fill="url(#gradient_1)" d="M284.249 604.184L286.041 606.706L287.098 606.871C288.179 605.81 289.016 604.968 290.349 604.207C277.037 631.016 266.485 657.126 259.477 686.305C258.191 686.948 257.792 687.524 256.845 688.589C256.097 685.049 257.228 680.755 257.002 677.05C256.991 676.879 256.976 676.708 256.964 676.537C257.932 661.977 276.674 619.107 284.249 604.184Z"/><defs><linearGradient id="gradient_2" gradientUnits="userSpaceOnUse" x1="245.96985" y1="703.8504" x2="257.78015" y2="709.8996"><stop offset="0" stop-color="#474848"/><stop offset="1" stop-color="#676667"/></linearGradient></defs><path fill="url(#gradient_2)" d="M247.167 726.794C248.569 709.986 251.575 692.535 256.964 676.537C256.976 676.708 256.991 676.879 257.002 677.05C257.228 680.755 256.097 685.049 256.845 688.589C257.792 687.524 258.191 686.948 259.477 686.305C254.946 704.773 250.313 727.221 250.193 746.25L249.86 746.628L249.387 746.38C249.37 745.19 249.331 743.999 249.324 742.809C249.295 737.74 248.246 731.756 247.167 726.794Z"/><path fill="#AD0B19" d="M449.208 483.729C448.637 480.894 447.662 478.703 446.378 476.128C445.246 473.859 445.065 472.231 445.866 469.761C446.981 469.417 446.547 469.329 447.542 469.826C451.902 472.003 454.393 477.628 455.655 481.983C457.792 487.045 457.002 492.371 458.14 497.636L455.533 502.953C452.815 504.829 450.34 506.477 447.037 507.15C438.946 511.379 440.11 518.397 436.978 525.785C436.074 527.918 434.572 530.212 432.241 530.938C430.64 531.437 429.259 531.141 427.769 530.536C420.341 527.52 416.637 523.612 413.623 516.143C412.734 513.939 412.203 512.089 413.178 509.867L414.715 509.617C417.615 510.664 419.55 512.956 421.702 515.079L429.019 515.031C432.266 511.163 434.047 507.115 435.754 502.443C433.698 498.484 428.348 492.75 428.583 488.15C431.833 487.19 439.438 492.699 442.906 494.05L443.737 494.365C446.031 493.02 448.087 491.32 450.188 489.696L449.208 483.729Z"/><path fill="#C32C3C" d="M449.208 483.729C448.637 480.894 447.662 478.703 446.378 476.128C445.246 473.859 445.065 472.231 445.866 469.761C446.981 469.417 446.547 469.329 447.542 469.826C451.902 472.003 454.393 477.628 455.655 481.983L454.947 483.209C454.381 482.421 453.772 481.807 453.091 481.121C451.315 481.387 450.518 482.555 449.208 483.729Z"/><path fill="#BCB7B7" d="M455.655 481.983C457.792 487.045 457.002 492.371 458.14 497.636L455.533 502.953C452.815 504.829 450.34 506.477 447.037 507.15C447.58 506.305 447.293 506.593 448.036 506.01C449.151 505.137 450.174 504.323 451.117 503.252C457.327 496.204 455.405 491.897 454.947 483.209L455.655 481.983Z"/><path d="M850.883 840.183C857.978 841.269 865.788 844.72 871.42 849.221C877.37 853.976 880.71 860.489 881.363 868.062C881.928 874.625 877.792 897.775 873.772 902.326C873.588 902.534 873.396 902.735 873.211 902.943C868.895 907.813 873.579 912.411 873.675 917.653C873.703 919.217 873.274 919.374 872.22 920.395L871.445 919.569C865.822 921.951 860.608 922.499 854.59 921.746C845.708 920.635 839.192 916.711 833.767 909.762C832.198 907.746 830.554 905.718 829.403 903.426C828.42 901.468 827.543 898.976 828.311 896.819C832.37 897.467 836.462 904.679 839.514 907.563C845.965 913.66 851.73 915.164 860.279 914.933C860.835 914.245 861.351 913.527 861.826 912.781C863.458 910.268 875.297 874.971 875.732 871.097C876.128 867.564 874.961 863.492 874.277 860.018C868.132 852.959 861.897 848.927 853.938 844.063C852.123 842.954 851.373 842.255 850.883 840.183Z"/><path d="M848.264 817.307C848.337 817.163 848.408 817.018 848.482 816.874C848.606 816.635 848.736 816.4 848.858 816.16C849.386 815.119 849.874 814.036 850.582 813.099C854.893 807.395 865.786 798.187 872.945 797.055C890.823 794.227 906.814 816.008 919.747 825.051C922.213 825.221 925.383 825.06 927.6 826.182C927.982 826.963 928.067 827.043 928.287 827.997C929.508 833.291 923.192 848.096 919.801 851.971C916.105 856.194 907.428 859.154 901.944 859.451C899.092 859.605 893.665 860.409 891.469 858.423C893.377 856.843 896.295 856.533 898.652 855.907C905.889 853.985 913.172 850.382 916.885 843.537C918.041 841.405 918.973 838.209 917.901 835.85C916.363 832.465 893.177 811.722 889.094 808.591C886.514 806.613 883.742 804.816 880.734 803.563C876.78 801.916 871.7 800.87 867.623 802.702C865.332 803.731 863.442 805.146 862.495 807.494C859.6 811.051 853.365 817.781 848.736 818.665C848.049 817.829 848.172 818.292 848.264 817.307Z"/><path fill="#9B9B9D" d="M848.264 817.307C851.367 814.801 854.342 812.164 857.415 809.628C859.207 808.149 860.201 807.273 862.495 807.494C859.6 811.051 853.365 817.781 848.736 818.665C848.049 817.829 848.172 818.292 848.264 817.307Z"/><path d="M775.109 850.125C775.755 850.795 776.614 851.235 776.54 852.243C776.33 855.104 767.888 862.558 765.859 866.943C765.743 867.562 765.334 868.151 764.966 868.657C764.331 869.531 764.499 869.014 763.97 870.089C762.802 872.466 762.622 878.711 763.387 881.234C764.162 883.79 765.701 886.2 768.152 887.414C772.628 889.631 778.52 886.172 783.269 885.973C793.064 885.562 803.717 887.661 813.185 884.349C821.614 881.4 827.739 873.954 829.577 865.279C830.266 862.022 830.295 859.031 831.725 855.977L832.403 856.031C833.455 859.985 833.312 863.818 832.504 867.816C830.826 876.11 825.817 883.868 818.636 888.423C809.576 894.168 798.939 893.381 788.717 892.924C786.1 892.807 783.013 892.447 780.451 893.035C775.576 894.153 770.536 899.816 765.362 898.187C762.799 897.38 761.475 895.001 760.408 892.72C756.295 883.934 755.756 875.098 759.323 866.083C762.226 858.745 767.955 853.261 775.109 850.125Z"/><path fill="#BCB7B7" d="M775.109 850.125C775.755 850.795 776.614 851.235 776.54 852.243C776.33 855.104 767.888 862.558 765.859 866.943L765.083 865.765C764.917 859.635 771.294 855.005 774.769 850.565L775.109 850.125Z"/><path d="M811.159 790.403C817.592 771.372 832.569 765.123 845.008 751.416C847.264 748.93 848.186 745.183 850.147 742.374C851.364 741.614 852.306 741.327 853.763 741.359C859.254 741.479 866.854 747.327 870.663 751.194C875.222 755.823 879.334 763.963 879.022 770.605C878.88 773.621 877.542 782.455 875.395 784.324L874.409 784.007C871.905 780.131 874.143 777.008 874.426 772.887C874.772 767.847 868.866 759.394 865.446 755.845C863.516 753.843 860.454 751.507 857.494 751.833C855.21 752.086 853.967 753.578 852.746 755.318C852.632 755.479 852.523 755.644 852.412 755.807C847.666 761.174 841.939 764.617 836.563 769.205C831.714 773.344 827.504 778.184 822.765 782.427C819.675 785.135 816.814 787.904 816.505 792.242C816.32 794.835 817.28 797.543 818.104 799.972C816.894 800.71 815.52 801.385 814.499 802.366C813.059 798.481 812.166 794.417 811.159 790.403Z"/><path fill="#9B9B9D" d="M822.765 782.427C822.273 781.647 822.271 781.913 822.665 780.692C823.837 777.059 846.752 758.375 851.125 755.503L852.412 755.807C847.666 761.174 841.939 764.617 836.563 769.205C831.714 773.344 827.504 778.184 822.765 782.427Z"/><path d="M811.453 840.688C801.344 843.275 789.849 847.357 779.561 843.404C768.355 839.099 764.232 825.571 762.018 814.848C761.242 811.088 760.845 806.536 759.349 802.998C757.263 798.062 752.58 794.349 750.524 789.496C749.833 787.866 749.999 786.613 750.776 785.062C753.868 778.892 763.087 774.148 769.496 772.103C776.617 769.831 782.89 771.222 789.38 774.477C787.766 775.537 787.345 776.827 786.624 778.526C779.633 776.85 772.283 776.915 765.969 780.862C762.666 782.926 761.043 785.379 760.251 789.134C760.762 792.545 763.855 794.298 764.892 797.431C768.983 809.796 768.245 823.89 777.969 833.983C787.011 843.369 799.706 840.575 811.453 840.688Z"/><path fill="#AD0B19" d="M951.506 469.804C951.737 469.848 951.971 469.883 952.2 469.937C963.312 472.557 969.704 482.358 975.49 491.468C973.523 494.067 971.678 496.851 969.141 498.925L960.982 499.973C956.941 496.589 953.259 492.226 950.054 488.045C947.746 485.035 944.359 480.416 945.067 476.435C945.564 473.644 949.367 471.422 951.506 469.804Z"/><defs><linearGradient id="gradient_3" gradientUnits="userSpaceOnUse" x1="244.9325" y1="757.79626" x2="251.63321" y2="758.42474"><stop offset="0" stop-color="#6A6A6A"/><stop offset="1" stop-color="#A19FA2"/></linearGradient></defs><path fill="url(#gradient_3)" d="M247.167 726.794C248.246 731.756 249.295 737.74 249.324 742.809C249.331 743.999 249.37 745.19 249.387 746.38L249.86 746.628L250.193 746.25C250.989 747.17 251.27 747.299 251.531 748.531C250.797 757.247 251.022 766.074 251.022 774.818L250.332 773.783L250.146 771.597L250.015 782.597L249.564 782.72L249.122 779.788L248.599 780.66L248.641 780.633L247.71 781.928C247.613 780.355 247.838 779.67 246.805 778.397L246.357 778.229C245.656 774.682 246.014 770.41 245.922 766.762C245.759 760.331 245.095 753.824 245.283 747.396C245.483 740.575 246.58 733.602 247.167 726.794Z"/><path fill="#BCB7B7" d="M246.357 778.229L246.805 778.397C247.838 779.67 247.613 780.355 247.71 781.928L248.641 780.633L248.599 780.66L249.122 779.788L249.564 782.72L250.015 782.597L250.146 771.597L250.332 773.783L251.022 774.818C251.585 784.165 252.063 793.475 253.362 802.756C254.997 814.435 257.569 826.039 257.86 837.853C254.241 830.381 253.46 823.816 251.873 815.779C249.28 802.64 247.612 791.562 246.357 778.229Z"/><path fill="#242629" d="M965.032 762.245C966.876 763.002 968.188 763.891 969.286 765.591C966.725 778.11 962.084 790.494 957.87 802.54L955.213 801.851C959.6 788.724 961.394 775.468 965.032 762.245Z"/><path d="M831.702 829.679C834.376 832.223 837.834 833.406 840.654 835.616C842.017 836.684 842.206 837.44 842.264 839.086C841.121 841.066 839.104 841.926 837.186 843.03C836.512 843.497 835.778 843.916 835.043 844.276C833.748 844.91 832.742 844.806 831.438 844.197C829.938 843.496 828.759 842.224 828.28 840.623C827.137 836.807 830.147 832.984 831.702 829.679Z"/><path fill="#6A6A6E" d="M795.485 425.817C804.796 428.94 814.94 433.702 823.257 438.919C823.457 439.221 823.653 439.526 823.856 439.826C824.646 440.991 825.543 441.756 826.616 442.652C825.919 443.969 825.255 443.817 823.897 444.292C815.611 436.806 803.951 433.541 795.485 425.817Z"/><path fill="#6A6A6E" d="M955.213 801.851L957.87 802.54C956.348 807.915 954.267 813.125 952.616 818.462C951.45 822.23 950.784 826.813 949.102 830.335C948.59 831.406 947.787 832.363 946.904 833.147C945.891 834.047 946.395 833.848 945.102 833.777C944.549 830.764 953.868 806.26 955.213 801.851Z"/><path fill="#242629" d="M786.624 778.526C787.345 776.827 787.766 775.537 789.38 774.477C792.376 775.951 794.882 777.384 797.488 779.506C800.091 782.264 801.581 784.717 803.036 788.181C799.22 786.133 795.874 784.113 792.521 781.345C790.745 780.062 788.642 779.344 786.624 778.526Z"/><path fill="#3C3E41" d="M792.521 781.345C795.115 781.229 795.572 781.28 797.488 779.506C800.091 782.264 801.581 784.717 803.036 788.181C799.22 786.133 795.874 784.113 792.521 781.345Z"/><path fill="#242629" d="M816.988 808.012C819.519 808.39 819.542 808.264 821.615 807.036C824.49 812.366 827.548 817.651 829.514 823.4C824.694 819.051 819.611 814.073 816.988 808.012Z"/><path fill="#6A6A6E" fill-opacity="0.98823529" d="M462.394 434.952C469.559 432.323 476.194 429.423 483.915 428.98C477.691 431.965 471.493 435.156 465.099 437.757L462.751 437.09L462.394 434.952Z"/><path fill="#242629" d="M450.012 441.061C453.763 438.338 457.95 436.272 462.394 434.952L462.751 437.09L465.099 437.757C464.231 438.296 464.002 438.307 462.989 438.383C459.273 438.662 454.612 441.728 451.524 443.743L450.012 441.061Z"/><path fill="#101112" d="M818.104 799.972C819.08 802.521 820.148 804.734 821.615 807.036C819.542 808.264 819.519 808.39 816.988 808.012C815.988 806.245 815.281 804.244 814.499 802.366C815.52 801.385 816.894 800.71 818.104 799.972Z"/><path fill="#6A6A6E" fill-opacity="0.98823529" d="M976.799 706.864C974.417 703.182 975.309 693.724 975.878 689.384L976.775 688.789C976.964 694.838 977.01 700.811 976.799 706.864Z"/></svg>